<?xml version="1.0" encoding="utf-8"?>
<!-- Generator: Adobe Illustrator 28.0.0, SVG Export Plug-In . SVG Version: 6.00 Build 0)  -->
<svg version="1.1" id="Layer_4" xmlns="http://www.w3.org/2000/svg" xmlns:xlink="http://www.w3.org/1999/xlink" x="0px" y="0px"
	 viewBox="0 0 615 615" style="enable-background:new 0 0 615 615;" xml:space="preserve">
<style type="text/css">
	.st0{fill:#E92D22;}
	.st1{fill:url(#SVGID_1_);}
	.st2{fill:url(#SVGID_00000067199731109597304770000000242397305747925176_);}
	.st3{fill:url(#SVGID_00000006683534868873070630000000136144483909495708_);}
	.st4{fill:url(#SVGID_00000062192353655350734250000013213176950466647715_);}
	.st5{fill:url(#SVGID_00000072979380095962424490000013062407223174003869_);}
	.st6{fill:none;}
	.st7{fill:#F62F24;}
	.st8{fill:#A92119;}
	.st9{fill:#AA2119;}
	.st10{fill:#AB2119;}
	.st11{fill:#AC2219;}
	.st12{fill:#AD221A;}
	.st13{fill:#AE221A;}
	.st14{fill:#AF221A;}
	.st15{fill:#B0221A;}
	.st16{fill:#B1221A;}
	.st17{fill:#B2231A;}
	.st18{fill:#B3231A;}
	.st19{fill:#B4231B;}
	.st20{fill:#B5231B;}
	.st21{fill:#B6231B;}
	.st22{fill:#B7241B;}
	.st23{fill:#B8241B;}
	.st24{fill:#B9241B;}
	.st25{fill:#BA241B;}
	.st26{fill:#BB241B;}
	.st27{fill:#BC251C;}
	.st28{fill:#BD251C;}
	.st29{fill:#BE251C;}
	.st30{fill:#BF251C;}
	.st31{fill:#C0251C;}
	.st32{fill:#C1251C;}
	.st33{fill:#C2261C;}
	.st34{fill:#C3261D;}
	.st35{fill:#C4261D;}
	.st36{fill:#C5261D;}
	.st37{fill:#C6261D;}
	.st38{fill:#C7271D;}
	.st39{fill:#C8271D;}
	.st40{fill:#C9271D;}
	.st41{fill:#C9271E;}
	.st42{fill:#CA271E;}
	.st43{fill:#CB271E;}
	.st44{fill:#CC281E;}
	.st45{fill:#CD281E;}
	.st46{fill:#CE281E;}
	.st47{fill:#CF281E;}
	.st48{fill:#D0281F;}
	.st49{fill:#D1291F;}
	.st50{fill:#D2291F;}
	.st51{fill:#D3291F;}
	.st52{fill:#D4291F;}
	.st53{fill:#D5291F;}
	.st54{fill:#D6291F;}
	.st55{fill:#D72A20;}
	.st56{fill:#D82A20;}
	.st57{fill:#D92A20;}
	.st58{fill:#DA2A20;}
	.st59{fill:#DB2A20;}
	.st60{fill:#DC2B20;}
	.st61{fill:#DD2B20;}
	.st62{fill:#DE2B20;}
	.st63{fill:#DF2B21;}
	.st64{fill:#E02B21;}
	.st65{fill:#E12C21;}
	.st66{fill:#E22C21;}
	.st67{fill:#E32C21;}
	.st68{fill:#E42C21;}
	.st69{fill:#E52C21;}
	.st70{fill:#E62C22;}
	.st71{fill:#E72D22;}
	.st72{fill:#E82D22;}
	.st73{fill:none;stroke:#F62F24;stroke-width:4;stroke-miterlimit:10;}
	.st74{fill:#F64134;}
	.st75{fill:#CF2122;}
	.st76{fill:none;stroke:#9D272A;stroke-width:3;stroke-miterlimit:10;}
</style>
<path class="st0" d="M80.5,25h455c30.4,0,55,24.6,55,55v455c0,30.4-24.6,55-55,55h-455c-30.4,0-55-24.6-55-55V80
	C25.5,49.6,50.1,25,80.5,25z"/>
<linearGradient id="SVGID_1_" gradientUnits="userSpaceOnUse" x1="188" y1="917.1" x2="32.5" y2="917.1" gradientTransform="matrix(1 0 0 1 0 -612)">
	<stop  offset="0.14" style="stop-color:#E92D22"/>
	<stop  offset="0.3" style="stop-color:#E12B24"/>
	<stop  offset="0.53" style="stop-color:#CB282B"/>
	<stop  offset="0.82" style="stop-color:#A82335"/>
	<stop  offset="0.89" style="stop-color:#9E2239"/>
</linearGradient>
<path class="st1" d="M188,303.2L47.6,565.8c-9.4-9.8-15.1-23.1-15.1-37.8V87c0-17.2,7.9-32.5,20.2-42.6L188,303.2L188,303.2z"/>
<linearGradient id="SVGID_00000142897422976511934390000015073402179379623089_" gradientUnits="userSpaceOnUse" x1="434.1" y1="918.95" x2="583.5" y2="918.95" gradientTransform="matrix(1 0 0 1 0 -612)">
	<stop  offset="0.14" style="stop-color:#E92D22"/>
	<stop  offset="0.3" style="stop-color:#E12B24"/>
	<stop  offset="0.53" style="stop-color:#CB282B"/>
	<stop  offset="0.82" style="stop-color:#A82335"/>
	<stop  offset="0.89" style="stop-color:#9E2239"/>
</linearGradient>
<path style="fill:url(#SVGID_00000142897422976511934390000015073402179379623089_);" d="M583.5,87v441c0,13.6-5,26.1-13.2,35.7
	L434.1,302.5L569.4,50.2C578.2,60,583.5,72.9,583.5,87z"/>
<radialGradient id="SVGID_00000137855097418822030190000017241434321223890618_" cx="-873.2842" cy="1904.3925" r="402.8591" gradientTransform="matrix(1.047176e-02 -0.9999 0.52 5.445314e-03 -670.6736 -576.0411)" gradientUnits="userSpaceOnUse">
	<stop  offset="0" style="stop-color:#4C2859"/>
	<stop  offset="0.79" style="stop-color:#B72209"/>
	<stop  offset="0.99" style="stop-color:#B72209"/>
</radialGradient>
<path style="fill:url(#SVGID_00000137855097418822030190000017241434321223890618_);" d="M52.7,44.4C62.2,36.6,74.3,32,87.5,32h205
	l20.2,38.7L333.5,32h195c16.2,0,30.8,7,40.9,18.2L434.1,302.5l136.2,261.2c-10,11.8-25,19.3-41.8,19.3h-194l-25.2-48l-25.8,48h-196
	c-15.7,0-29.9-6.6-39.9-17.2L188,303.1L52.7,44.4"/>
<g>
	
		<radialGradient id="SVGID_00000108987302083708296220000008804996445294375050_" cx="372.4" cy="915" r="170.1705" gradientTransform="matrix(1 0 0 1 0 -612)" gradientUnits="userSpaceOnUse">
		<stop  offset="0" style="stop-color:#842B32"/>
		<stop  offset="7.000000e-02" style="stop-color:#922B2C"/>
		<stop  offset="0.21" style="stop-color:#A92B23"/>
		<stop  offset="0.35" style="stop-color:#B92B1C"/>
		<stop  offset="0.52" style="stop-color:#C22B19"/>
		<stop  offset="0.74" style="stop-color:#C62B18"/>
		<stop  offset="0.84" style="stop-color:#C82B18"/>
		<stop  offset="0.9" style="stop-color:#D12B1A"/>
		<stop  offset="0.95" style="stop-color:#DF2D1E"/>
		<stop  offset="1" style="stop-color:#F42E23"/>
		<stop  offset="1" style="stop-color:#F62F24"/>
	</radialGradient>
	<polyline style="fill:url(#SVGID_00000108987302083708296220000008804996445294375050_);" points="312.1,70.6 434.9,301.9 
		309.9,535.4 	"/>
	
		<radialGradient id="SVGID_00000077323756063327886800000012863996643760625338_" cx="249.6" cy="915" r="170.1705" gradientTransform="matrix(1 0 0 1 0 -612)" gradientUnits="userSpaceOnUse">
		<stop  offset="0" style="stop-color:#842B32"/>
		<stop  offset="7.000000e-02" style="stop-color:#922B2C"/>
		<stop  offset="0.21" style="stop-color:#A92B23"/>
		<stop  offset="0.35" style="stop-color:#B92B1C"/>
		<stop  offset="0.52" style="stop-color:#C22B19"/>
		<stop  offset="0.74" style="stop-color:#C62B18"/>
		<stop  offset="0.84" style="stop-color:#C82B18"/>
		<stop  offset="0.9" style="stop-color:#D12B1A"/>
		<stop  offset="0.95" style="stop-color:#DF2D1E"/>
		<stop  offset="1" style="stop-color:#F42E23"/>
		<stop  offset="1" style="stop-color:#F62F24"/>
	</radialGradient>
	<polyline style="fill:url(#SVGID_00000077323756063327886800000012863996643760625338_);" points="309.9,535.4 187.1,304.1 
		312.1,70.6 	"/>
</g>
<line class="st6" x1="312.7" y1="70.7" x2="225.9" y2="232.5"/>
<polygon class="st7" points="333.5,32 312.7,70.7 292.5,32 "/>
<line class="st6" x1="393.7" y1="225.4" x2="312.7" y2="70.7"/>
<g>
	<path class="st8" d="M386.2,239.5l-21.4,40l44.7,23.9l-51.6,27.4l21.9,40.6c14.3-21.8,27.3-43.5,43.7-63.5
		C417.9,281.7,399.9,261.6,386.2,239.5L386.2,239.5z"/>
	<path class="st9" d="M386.3,239.2l-21.2,39.7c0.2,0.3,44.5,24.2,44.6,24.6c-0.2,0.3-51.2,27.6-51.4,27.9l21.7,40.2
		c14-21.5,27.6-44.1,43.7-63.8C418.1,282.1,399.9,261.1,386.3,239.2L386.3,239.2z"/>
	<path class="st10" d="M386.4,239l-21,39.3c0.4,0.7,44.3,24.5,44.5,25.3c-0.5,0.6-50.9,27.8-51.3,28.5l21.5,39.9
		c13.8-21.1,27.9-44.7,43.7-64.1C418.4,282.4,399.7,260.5,386.4,239L386.4,239z"/>
	<path class="st11" d="M386.5,238.8l-20.8,38.9c0.6,1,44.1,24.8,44.4,26c-0.8,0.9-50.5,28-51.2,29l21.3,39.5
		c13.6-20.8,28.2-45.4,43.8-64.4C418.6,282.7,399.7,260,386.5,238.8L386.5,238.8z"/>
	<path class="st12" d="M386.7,238.6l-20.6,38.5c0.8,1.4,43.9,25.1,44.3,26.7c-1,1.2-50.2,28.2-51.1,29.6l21.1,39.1
		c13.4-20.5,28.5-46,43.8-64.8C418.9,283,399.6,259.4,386.7,238.6L386.7,238.6z"/>
	<path class="st13" d="M386.8,238.4l-20.4,38.1c1.1,1.7,43.7,25.4,44.2,27.4c-1.3,1.5-49.9,28.5-51,30.1l20.9,38.7
		c13.2-20.1,28.7-46.6,43.8-65.1C419.1,283.4,399.5,258.9,386.8,238.4L386.8,238.4z"/>
	<path class="st14" d="M386.9,238.2l-20.2,37.7c1.3,2,43.5,25.6,44,28.1c-1.5,1.9-49.5,28.7-50.8,30.7l20.7,38.4
		c12.9-19.8,29-47.3,43.9-65.4C419.4,283.7,399.4,258.3,386.9,238.2L386.9,238.2z"/>
	<path class="st15" d="M387,238l-19.9,37.3c1.5,2.4,43.3,25.9,43.9,28.7c-1.8,2.1-49.2,28.9-50.7,31.3l20.5,38
		c12.7-19.5,29.3-47.9,43.9-65.8C419.6,284,399.3,257.8,387,238L387,238z"/>
	<path class="st16" d="M387.1,237.7l-19.7,36.9c1.7,2.7,43.1,26.2,43.8,29.4c-2,2.5-48.8,29.1-50.6,31.8l20.2,37.6
		c12.5-19.1,29.6-48.6,43.9-66.1C419.9,284.3,399.2,257.2,387.1,237.7z"/>
	<path class="st17" d="M387.2,237.5L367.7,274c1.9,3.1,42.9,26.5,43.7,30.1c-2.3,2.8-48.5,29.4-50.5,32.4l20,37.2
		c12.3-18.8,29.8-49.2,44-66.4C420.1,284.6,399.1,256.6,387.2,237.5z"/>
	<path class="st18" d="M387.3,237.3L368,273.4c2.1,3.4,42.7,26.8,43.6,30.8c-2.5,3.1-48.2,29.6-50.3,32.9l19.8,36.8
		c12.1-18.5,30.1-49.9,44-66.8C420.4,284.9,399,256.1,387.3,237.3L387.3,237.3z"/>
	<path class="st19" d="M387.5,237.1l-19.1,35.7c2.3,3.8,42.5,27,43.5,31.5c-2.8,3.4-47.8,29.8-50.2,33.5l19.6,36.5
		c11.8-18.1,30.4-50.5,44-67.1C420.6,285.3,398.9,255.5,387.5,237.1L387.5,237.1z"/>
	<path class="st20" d="M387.6,236.9l-18.9,35.3c2.5,4.1,42.3,27.3,43.4,32.2c-3,3.7-47.5,30-50.1,34l19.4,36.1
		c11.6-17.8,30.7-51.1,44-67.4C420.9,285.6,398.8,254.9,387.6,236.9L387.6,236.9z"/>
	<path class="st21" d="M387.7,236.6L369,271.5c2.8,4.4,42.1,27.6,43.2,32.9c-3.3,4-47.1,30.2-50,34.6l19.2,35.7
		c11.4-17.4,31-51.8,44.1-67.8C421.1,285.9,398.7,254.4,387.7,236.6z"/>
	<path class="st22" d="M387.8,236.4l-18.4,34.5c3,4.8,41.9,27.9,43.1,33.5c-3.5,4.3-46.8,30.5-49.9,35.1l19,35.3
		c11.2-17.1,31.3-52.4,44.1-68.1C421.4,286.2,398.6,253.8,387.8,236.4L387.8,236.4z"/>
	<path class="st23" d="M387.9,236.2l-18.2,34.1c3.2,5.1,41.7,28.2,43,34.2c-3.8,4.6-46.5,30.7-49.7,35.7l18.8,35
		c11-16.8,31.5-53,44.1-68.4C421.6,286.5,398.5,253.3,387.9,236.2L387.9,236.2z"/>
	<path class="st24" d="M388,236l-18,33.7c3.4,5.5,41.5,28.5,42.9,34.9c-4,4.9-46.1,30.9-49.6,36.2l18.6,34.6
		c10.8-16.4,31.8-53.7,44.2-68.8C421.9,286.9,398.4,252.7,388,236L388,236z"/>
	<path class="st25" d="M388.2,235.8L370.4,269c3.6,5.8,41.3,28.7,42.8,35.6c-4.3,5.2-45.8,31.1-49.5,36.8l18.4,34.2
		c10.5-16.1,32.1-54.3,44.2-69.1C422.1,287.2,398.3,252.2,388.2,235.8L388.2,235.8z"/>
	<path class="st26" d="M388.3,235.6l-17.6,32.9c3.8,6.1,41.1,29,42.7,36.3c-4.5,5.5-45.4,31.3-49.4,37.4l18.2,33.8
		c10.3-15.8,32.4-55,44.2-69.4C422.4,287.5,398.2,251.6,388.3,235.6L388.3,235.6z"/>
	<path class="st27" d="M388.4,235.4L371,267.9c4,6.5,40.9,29.3,42.6,37c-4.8,5.9-45.1,31.5-49.3,37.9l18,33.4
		c10.1-15.4,32.7-55.6,44.2-69.8C422.6,287.8,398.1,251.1,388.4,235.4L388.4,235.4z"/>
	<path class="st28" d="M388.5,235.1l-17.2,32.1c4.2,6.8,40.7,29.6,42.5,37.7c-5,6.1-44.8,31.8-49.1,38.5l17.8,33.1
		c9.9-15.1,33-56.2,44.3-70.1C422.9,288.1,398,250.5,388.5,235.1L388.5,235.1z"/>
	<path class="st29" d="M388.6,234.9l-16.9,31.7c4.4,7.2,40.5,29.9,42.3,38.4c-5.3,6.5-44.4,32-49,39l17.6,32.7
		c9.7-14.8,33.2-56.9,44.3-70.4C423.1,288.5,398,250,388.6,234.9L388.6,234.9z"/>
	<path class="st30" d="M388.7,234.7L372,266c4.7,7.5,40.3,30.1,42.2,39c-5.5,6.8-44.1,32.2-48.9,39.6l17.4,32.3
		c9.4-14.4,33.5-57.5,44.3-70.8C423.4,288.8,397.8,249.4,388.7,234.7L388.7,234.7z"/>
	<path class="st31" d="M388.9,234.5l-16.5,30.9c4.9,7.9,40.1,30.4,42.1,39.7c-5.8,7.1-43.7,32.4-48.8,40.1l17.2,31.9
		c9.2-14.1,33.8-58.2,44.4-71.1C423.6,289.1,397.7,248.8,388.9,234.5L388.9,234.5z"/>
	<path class="st32" d="M389,234.3l-16.3,30.5c5.1,8.2,39.9,30.7,42,40.4c-6,7.4-43.4,32.6-48.7,40.7l17,31.5
		c9-13.8,34.1-58.8,44.4-71.4C423.9,289.4,397.6,248.3,389,234.3z"/>
	<path class="st33" d="M389.1,234L373,264.1c5.3,8.5,39.7,31,41.9,41.1c-6.3,7.7-43,32.9-48.5,41.2l16.8,31.2
		c8.8-13.4,34.4-59.5,44.4-71.8C424.1,289.7,397.5,247.7,389.1,234L389.1,234z"/>
	<path class="st34" d="M389.2,233.8l-15.9,29.7c5.5,8.9,39.5,31.3,41.8,41.8c-6.5,8-42.7,33.1-48.4,41.8l16.6,30.8
		c8.5-13.1,34.6-60.1,44.5-72.1C424.4,290,397.5,247.1,389.2,233.8L389.2,233.8z"/>
	<path class="st35" d="M389.3,233.6l-15.7,29.3c5.7,9.2,39.3,31.6,41.7,42.5c-6.8,8.3-42.4,33.3-48.3,42.4l16.4,30.4
		c8.3-12.8,34.9-60.7,44.5-72.4C424.6,290.3,397.4,246.6,389.3,233.6L389.3,233.6z"/>
	<path class="st36" d="M389.4,233.4l-15.5,28.9c5.9,9.6,39.1,31.8,41.5,43.1c-7,8.6-42,33.5-48.2,42.9l16.2,30
		c8.1-12.4,35.2-61.4,44.5-72.8C424.9,290.7,397.3,246,389.4,233.4L389.4,233.4z"/>
	<path class="st37" d="M389.5,233.2l-15.2,28.5c6.1,9.9,38.9,32.1,41.4,43.8c-7.3,8.9-41.7,33.7-48,43.5l16,29.7
		c7.9-12.1,35.5-62,44.5-73.1C425.1,291,397.2,245.5,389.5,233.2L389.5,233.2z"/>
	<path class="st38" d="M389.7,233l-15,28.1c6.3,10.2,38.7,32.4,41.3,44.5c-7.5,9.2-41.3,34-47.9,44l15.8,29.3
		c7.7-11.7,35.8-62.6,44.6-73.4C425.4,291.3,397.1,244.9,389.7,233L389.7,233z"/>
	<path class="st39" d="M389.8,232.7L375,260.4c6.6,10.6,38.5,32.7,41.2,45.2c-7.8,9.5-41,34.2-47.8,44.6l15.6,28.9
		c7.5-11.4,36-63.3,44.6-73.8C425.6,291.6,397,244.4,389.8,232.7L389.8,232.7z"/>
	<path class="st40" d="M389.9,232.5l-14.6,27.3c6.8,10.9,38.3,33,41.1,45.9c-8.1,9.9-40.7,34.4-47.7,45.1l15.4,28.5
		c7.2-11.1,36.3-63.9,44.6-74.1C425.9,291.9,396.9,243.8,389.9,232.5L389.9,232.5z"/>
	<path class="st41" d="M390,232.3l-14.4,26.9c7,11.3,38.1,33.2,41,46.6c-8.3,10.1-40.3,34.6-47.6,45.7l15.2,28.1
		c7-10.7,36.6-64.6,44.7-74.4C426.1,292.3,396.8,243.2,390,232.3L390,232.3z"/>
	<path class="st42" d="M390.1,232.1l-14.2,26.5c7.2,11.6,37.9,33.5,40.8,47.3c-8.6,10.5-40,34.8-47.4,46.2l15,27.8
		c6.8-10.4,36.9-65.2,44.7-74.7C426.4,292.6,396.7,242.7,390.1,232.1L390.1,232.1z"/>
	<path class="st43" d="M390.3,231.9l-14,26.1c7.4,12,37.7,33.8,40.7,48c-8.8,10.8-39.6,35.1-47.3,46.8l14.8,27.4
		c6.6-10.1,37.2-65.9,44.7-75.1C426.6,292.9,396.6,242.1,390.3,231.9L390.3,231.9z"/>
	<path class="st44" d="M390.4,231.7l-13.7,25.7c7.6,12.3,37.5,34.1,40.6,48.6c-9.1,11.1-39.3,35.3-47.2,47.4l14.5,27
		c6.4-9.7,37.5-66.5,44.8-75.4C426.9,293.2,396.5,241.6,390.4,231.7L390.4,231.7z"/>
	<path class="st45" d="M390.5,231.4L377,256.7c7.8,12.6,37.3,34.4,40.5,49.3c-9.3,11.4-39,35.5-47.1,47.9l14.3,26.6
		c6.1-9.4,37.7-67.1,44.8-75.7C427.1,293.5,396.4,241,390.5,231.4L390.5,231.4z"/>
	<path class="st46" d="M390.6,231.2l-13.3,24.9c8,13,37.1,34.7,40.4,50c-9.6,11.7-38.6,35.7-47,48.5l14.2,26.3
		c5.9-9.1,38-67.8,44.8-76.1C427.4,293.9,396.3,240.4,390.6,231.2L390.6,231.2z"/>
	<path class="st47" d="M390.7,231l-13.1,24.5c8.2,13.3,36.9,35,40.3,50.7c-9.8,12-38.3,35.9-46.8,49l13.9,25.9
		c5.7-8.7,38.3-68.4,44.8-76.4C427.6,294.2,396.2,239.9,390.7,231L390.7,231z"/>
	<path class="st48" d="M390.8,230.8l-12.9,24.1c8.5,13.6,36.7,35.2,40.2,51.4c-10.1,12.3-37.9,36.2-46.7,49.6l13.7,25.5
		c5.5-8.4,38.6-69,44.9-76.7C427.9,294.5,396.1,239.3,390.8,230.8L390.8,230.8z"/>
	<path class="st49" d="M391,230.6l-12.7,23.7c8.7,14,36.5,35.5,40,52.1c-10.3,12.6-37.6,36.4-46.6,50.1l13.5,25.1
		c5.3-8,38.9-69.7,44.9-77.1C428.1,294.8,396,238.8,391,230.6L391,230.6z"/>
	<path class="st50" d="M391.1,230.4l-12.5,23.3c8.9,14.3,36.3,35.8,39.9,52.8c-10.6,12.9-37.3,36.6-46.5,50.7l13.3,24.8
		c5-7.7,39.2-70.3,44.9-77.4C428.3,295.1,395.9,238.2,391.1,230.4L391.1,230.4z"/>
	<path class="st51" d="M391.2,230.1L378.9,253c9.1,14.7,36.1,36.1,39.8,53.4c-10.8,13.2-36.9,36.8-46.3,51.2l13.1,24.4
		c4.8-7.4,39.4-71,45-77.7C428.6,295.5,395.8,237.6,391.2,230.1L391.2,230.1z"/>
	<path class="st52" d="M391.3,229.9l-12,22.5c9.3,15,35.9,36.4,39.7,54.1c-11.1,13.5-36.6,37-46.2,51.8l12.9,24
		c4.6-7,39.7-71.6,45-78.1C428.8,295.8,395.7,237.1,391.3,229.9L391.3,229.9z"/>
	<path class="st53" d="M391.4,229.7l-11.8,22.1c9.5,15.4,35.7,36.6,39.6,54.8c-11.3,13.8-36.2,37.3-46.1,52.4l12.7,23.6
		c4.4-6.7,40-72.2,45-78.4C429.1,296.1,395.6,236.5,391.4,229.7z"/>
	<path class="st54" d="M391.5,229.5l-11.6,21.7c9.7,15.7,35.5,36.9,39.5,55.5c-11.6,14.1-35.9,37.5-46,52.9l12.5,23.2
		c4.2-6.4,40.3-72.9,45.1-78.7C429.4,296.4,395.6,236,391.5,229.5L391.5,229.5z"/>
	<path class="st55" d="M391.6,229.3l-11.4,21.3c10,16,35.3,37.2,39.4,56.2c-11.8,14.5-35.5,37.7-45.9,53.5l12.3,22.9
		c4-6,40.6-73.5,45.1-79.1C429.6,296.7,395.5,235.4,391.6,229.3z"/>
	<path class="st56" d="M391.8,229.1L380.6,250c10.2,16.4,35.1,37.5,39.2,56.9c-12.1,14.8-35.2,37.9-45.7,54l12.1,22.5
		c3.7-5.7,40.8-74.2,45.1-79.4C429.9,297,395.4,234.9,391.8,229.1L391.8,229.1z"/>
	<path class="st57" d="M391.9,228.8l-11,20.5c10.4,16.7,34.9,37.8,39.1,57.6c-12.3,15.1-34.9,38.1-45.6,54.6l11.9,22.1
		c3.5-5.4,41.1-74.8,45.2-79.7C430.1,297.4,395.3,234.3,391.9,228.8L391.9,228.8z"/>
	<path class="st58" d="M392,228.6l-10.8,20.1c10.6,17.1,34.7,38,39,58.2c-12.6,15.4-34.5,38.4-45.5,55.1l11.7,21.7
		c3.3-5,41.4-75.4,45.2-80.1C430.4,297.7,395.2,233.7,392,228.6L392,228.6z"/>
	<path class="st59" d="M392.1,228.4l-10.5,19.7c10.8,17.4,34.5,38.3,38.9,58.9c-12.8,15.7-34.2,38.6-45.4,55.7l11.5,21.4
		c3.1-4.7,41.7-76.1,45.2-80.4C430.6,298,395.1,233.2,392.1,228.4L392.1,228.4z"/>
	<path class="st60" d="M392.2,228.2l-10.3,19.3c11,17.8,34.3,38.6,38.8,59.6c-13.1,16-33.8,38.8-45.3,56.2l11.3,21
		c2.8-4.4,42-76.7,45.2-80.7C430.8,298.3,395,232.6,392.2,228.2L392.2,228.2z"/>
	<path class="st61" d="M392.3,228l-10.1,18.9c11.2,18.1,34.1,38.9,38.7,60.3c-13.3,16.3-33.5,39-45.1,56.8l11.1,20.6
		c2.6-4,42.2-77.4,45.3-81C431.1,298.6,394.9,232.1,392.3,228L392.3,228z"/>
	<path class="st62" d="M392.5,227.8l-9.9,18.5c11.4,18.4,33.9,39.2,38.6,61c-13.6,16.6-33.2,39.2-45,57.3l10.9,20.2
		c2.4-3.7,42.5-78,45.3-81.4C431.4,299,394.8,231.5,392.5,227.8L392.5,227.8z"/>
	<path class="st63" d="M392.6,227.5l-9.7,18.1c11.6,18.8,33.7,39.5,38.5,61.7c-13.9,16.9-32.9,39.5-44.9,57.9l10.7,19.8
		c2.2-3.4,42.8-78.6,45.3-81.7C431.6,299.3,394.7,230.9,392.6,227.5L392.6,227.5z"/>
	<path class="st64" d="M392.7,227.3l-9.5,17.7c11.8,19.1,33.5,39.7,38.3,62.4c-14.1,17.2-32.5,39.7-44.8,58.5l10.5,19.5
		c2-3,43.1-79.3,45.4-82.1C431.9,299.6,394.6,230.4,392.7,227.3L392.7,227.3z"/>
	<path class="st65" d="M392.8,227.1l-9.2,17.3c12.1,19.5,33.3,40,38.2,63c-14.3,17.5-32.2,39.9-44.7,59l10.3,19.1
		c1.8-2.7,43.4-79.9,45.4-82.4C432.1,299.9,394.5,229.8,392.8,227.1L392.8,227.1z"/>
	<path class="st66" d="M392.9,226.9l-9,16.9c12.3,19.8,33.1,40.3,38.1,63.7c-14.6,17.8-31.8,40.1-44.5,59.6l10.1,18.7
		c1.5-2.4,43.7-80.6,45.4-82.7C432.3,300.2,394.4,229.3,392.9,226.9L392.9,226.9z"/>
	<path class="st67" d="M393,226.7l-8.8,16.5c12.5,20.1,32.9,40.6,38,64.4c-14.8,18.1-31.5,40.3-44.4,60.1l9.9,18.3
		c1.3-2,43.9-81.2,45.5-83.1C432.6,300.6,394.3,228.7,393,226.7L393,226.7z"/>
	<path class="st68" d="M393.2,226.5l-8.6,16.1c12.7,20.5,32.7,40.9,37.9,65.1c-15.1,18.5-31.1,40.5-44.3,60.7l9.7,18
		c1.1-1.7,44.2-81.8,45.5-83.4C432.9,300.9,394.2,228.1,393.2,226.5L393.2,226.5z"/>
	<path class="st69" d="M393.3,226.2l-8.4,15.7c12.9,20.8,32.5,41.2,37.8,65.8c-15.3,18.8-30.8,40.8-44.2,61.2l9.5,17.6
		c0.9-1.3,44.5-82.5,45.5-83.7C433.1,301.2,394.1,227.6,393.3,226.2L393.3,226.2z"/>
	<path class="st70" d="M393.4,226l-8.2,15.3c13.1,21.2,32.3,41.4,37.7,66.5c-15.6,19.1-30.4,41-44,61.8l9.3,17.2
		c0.7-1,44.8-83.1,45.5-84C433.4,301.5,394,227,393.4,226L393.4,226z"/>
	<path class="st71" d="M393.5,225.8l-8,14.9c13.3,21.5,32.1,41.7,37.5,67.2c-15.9,19.4-30.1,41.2-43.9,62.3l9.1,16.8
		c0.4-0.7,45.1-83.8,45.6-84.4C433.6,301.8,393.9,226.5,393.5,225.8L393.5,225.8z"/>
	<path class="st72" d="M393.6,225.6l-7.8,14.5c13.5,21.8,31.9,42,37.4,67.9c-16.1,19.7-29.8,41.4-43.8,62.9l8.8,16.4
		c0.2-0.3,45.3-84.4,45.6-84.7C433.8,302.2,393.8,225.9,393.6,225.6L393.6,225.6z"/>
	<path class="st0" d="M434.1,302.5l-40.4-77.1l-7.5,14.1c13.8,22.2,31.7,42.3,37.3,68.5c-16.4,20-29.4,41.6-43.7,63.5l8.7,16.1
		L434.1,302.5L434.1,302.5z"/>
</g>
<line class="st6" x1="388.5" y1="387.5" x2="309.3" y2="535"/>
<g>
	<path class="st8" d="M212.5,302.5l39.7-21.1l-18.6-34.7c-11,19.8-28.8,38-26.1,59.2c3.6,20.7,16.9,39.7,31.1,57.1l19.4-36.2
		L212.5,302.5L212.5,302.5z"/>
	<path class="st9" d="M251.9,280.9l-18.4-34.3c-10.9,19.5-28.9,38.5-26.3,59.4c3.5,20.3,17.2,40.3,31.3,57.5l19.2-36
		c-0.2-0.3-45.2-24.5-45.3-24.9C212.4,302.3,251.8,281.2,251.9,280.9L251.9,280.9z"/>
	<path class="st10" d="M251.6,280.4l-18.3-34c-10.7,19.2-29,39-26.5,59.6c3.5,20,17.6,40.9,31.4,57.8l19.1-35.7
		c-0.4-0.5-45-24.7-45.1-25.4C212.3,302,251.3,281,251.6,280.4L251.6,280.4z"/>
	<path class="st11" d="M251.3,279.9l-18.1-33.7c-10.5,18.9-29.2,39.5-26.7,59.7c3.4,19.7,18,41.5,31.6,58.1l19-35.4
		c-0.7-0.8-44.7-24.9-44.9-25.9C212.1,301.7,250.8,280.8,251.3,279.9L251.3,279.9z"/>
	<path class="st12" d="M251.1,279.3l-17.9-33.4c-10.4,18.6-29.3,40-26.8,59.9c3.4,19.4,18.3,42.1,31.7,58.4l18.8-35.1
		c-0.9-1.1-44.4-25.1-44.6-26.4C212,301.4,250.4,280.5,251.1,279.3L251.1,279.3z"/>
	<path class="st13" d="M250.8,278.8L233,245.7c-10.2,18.3-29.5,40.5-27,60.1c3.3,19.1,18.7,42.6,31.9,58.7l18.7-34.8
		c-1.1-1.3-44.1-25.3-44.4-26.9C211.9,301.2,249.9,280.3,250.8,278.8L250.8,278.8z"/>
	<path class="st14" d="M250.5,278.3l-17.6-32.8c-10,18-29.6,41-27.2,60.3c3.3,18.8,19.1,43.2,32,59.1l18.5-34.6
		c-1.3-1.6-43.9-25.5-44.2-27.4C211.8,300.9,249.5,280.1,250.5,278.3L250.5,278.3z"/>
	<path class="st15" d="M250.2,277.7l-17.4-32.5c-9.8,17.7-29.8,41.5-27.4,60.5c3.2,18.4,19.5,43.8,32.2,59.4l18.4-34.3
		c-1.5-1.9-43.6-25.7-44-27.9C211.7,300.6,249,279.9,250.2,277.7L250.2,277.7z"/>
	<path class="st16" d="M249.9,277.2L232.7,245c-9.7,17.4-29.9,42-27.6,60.6c3.2,18.1,19.8,44.4,32.3,59.7l18.2-34
		c-1.8-2.1-43.3-25.9-43.8-28.4C211.6,300.3,248.6,279.6,249.9,277.2L249.9,277.2z"/>
	<path class="st17" d="M249.6,276.7l-17.1-31.9c-9.5,17.1-30,42.5-27.8,60.8c3.1,17.8,20.2,45,32.5,60l18.1-33.7
		c-2-2.4-43-26-43.5-28.9C211.4,300.1,248.1,279.4,249.6,276.7L249.6,276.7z"/>
	<path class="st18" d="M249.3,276.1l-16.9-31.5c-9.3,16.8-30.2,43-27.9,61c3,17.5,20.6,45.6,32.6,60.4l17.9-33.5
		c-2.2-2.7-42.8-26.2-43.3-29.4C211.3,299.8,247.6,279.2,249.3,276.1L249.3,276.1z"/>
	<path class="st19" d="M249.1,275.6l-16.8-31.2c-9.2,16.5-30.3,43.5-28.1,61.2c3,17.2,20.9,46.2,32.8,60.7l17.8-33.2
		c-2.4-3-42.5-26.4-43.1-29.9C211.2,299.5,247.2,278.9,249.1,275.6L249.1,275.6z"/>
	<path class="st20" d="M248.8,275.1l-16.6-30.9c-9,16.2-30.5,44-28.3,61.3c2.9,16.8,21.3,46.8,32.9,61l17.6-32.9
		c-2.6-3.2-42.2-26.6-42.9-30.4C211.1,299.2,246.7,278.7,248.8,275.1L248.8,275.1z"/>
	<path class="st21" d="M248.5,274.5l-16.4-30.6c-8.8,15.9-30.6,44.5-28.5,61.5c2.9,16.5,21.7,47.4,33.1,61.3l17.5-32.6
		c-2.8-3.5-41.9-26.8-42.6-30.9C211,299,246.3,278.5,248.5,274.5L248.5,274.5z"/>
	<path class="st22" d="M248.2,274L232,243.7c-8.7,15.6-30.7,45-28.7,61.7c2.8,16.2,22,48,33.2,61.6l17.3-32.3
		c-3.1-3.8-41.7-27-42.4-31.4C210.8,298.7,245.8,278.3,248.2,274L248.2,274z"/>
	<path class="st23" d="M247.9,273.5l-16.1-30c-8.5,15.3-30.9,45.5-28.8,61.9c2.8,15.9,22.4,48.6,33.4,62l17.2-32.1
		c-3.3-4-41.4-27.2-42.2-31.9C210.7,298.4,245.4,278,247.9,273.5L247.9,273.5z"/>
	<path class="st24" d="M247.6,272.9l-15.9-29.7c-8.3,15-31,46-29,62c2.7,15.6,22.8,49.2,33.5,62.3l17-31.8
		c-3.5-4.3-41.1-27.3-42-32.4C210.6,298.2,244.9,277.8,247.6,272.9z"/>
	<path class="st25" d="M247.3,272.4L231.6,243c-8.2,14.6-31.2,46.5-29.2,62.2c2.7,15.2,23.2,49.8,33.7,62.6l16.9-31.5
		c-3.7-4.6-40.8-27.5-41.8-32.9C210.5,297.9,244.5,277.6,247.3,272.4L247.3,272.4z"/>
	<path class="st26" d="M247.1,271.9l-15.6-29c-8,14.4-31.3,47-29.4,62.4c2.6,14.9,23.5,50.3,33.8,62.9l16.7-31.2
		c-4-4.8-40.5-27.7-41.5-33.4C210.4,297.6,244,277.3,247.1,271.9L247.1,271.9z"/>
	<path class="st27" d="M246.8,271.3l-15.4-28.7c-7.8,14-31.4,47.5-29.6,62.6c2.5,14.6,23.9,50.9,34,63.3l16.6-31
		c-4.2-5.1-40.3-27.9-41.3-33.9C210.3,297.3,243.6,277.1,246.8,271.3L246.8,271.3z"/>
	<path class="st28" d="M246.5,270.8l-15.2-28.4c-7.6,13.7-31.6,48-29.8,62.8c2.5,14.3,24.3,51.5,34.1,63.6l16.4-30.7
		c-4.4-5.4-40-28.1-41.1-34.4C210.1,297.1,243.1,276.9,246.5,270.8L246.5,270.8z"/>
	<path class="st29" d="M246.2,270.3l-15.1-28.1c-7.5,13.4-31.7,48.5-29.9,62.9c2.4,14,24.6,52.1,34.3,63.9l16.3-30.4
		c-4.6-5.6-39.7-28.3-40.9-35C210,296.8,242.6,276.7,246.2,270.3L246.2,270.3z"/>
	<path class="st30" d="M245.9,269.7L231,241.9c-7.3,13.1-31.9,49-30.1,63.1c2.4,13.7,25,52.7,34.4,64.2l16.1-30.1
		c-4.8-5.9-39.4-28.5-40.7-35.5C209.9,296.5,242.2,276.4,245.9,269.7L245.9,269.7z"/>
	<path class="st31" d="M245.6,269.2l-14.7-27.5c-7.1,12.8-32,49.5-30.3,63.3c2.3,13.4,25.4,53.3,34.6,64.6l16-29.8
		c-5-6.2-39.2-28.6-40.4-36C209.8,296.2,241.7,276.2,245.6,269.2L245.6,269.2z"/>
	<path class="st32" d="M245.3,268.7l-14.6-27.2c-7,12.5-32.2,50-30.5,63.5c2.3,13,25.7,53.9,34.7,64.9l15.8-29.6
		c-5.3-6.4-38.9-28.8-40.2-36.5C209.7,296,241.3,276,245.3,268.7L245.3,268.7z"/>
	<path class="st33" d="M245.1,268.1l-14.4-26.8c-6.8,12.2-32.3,50.5-30.7,63.6c2.2,12.7,26.1,54.5,34.9,65.2l15.7-29.3
		c-5.5-6.7-38.6-29-40-37C209.6,295.7,240.8,275.8,245.1,268.1z"/>
	<path class="st34" d="M244.8,267.6l-14.3-26.5c-6.6,11.9-32.4,51.1-30.8,63.8c2.2,12.4,26.5,55.1,35,65.5l15.5-29
		c-5.7-7-38.3-29.2-39.8-37.5C209.4,295.4,240.3,275.5,244.8,267.6L244.8,267.6z"/>
	<path class="st35" d="M244.5,267.1l-14.1-26.2c-6.5,11.6-32.6,51.6-31,64c2.1,12.1,26.8,55.7,35.2,65.9l15.4-28.7
		c-5.9-7.2-38-29.4-39.5-38C209.3,295.2,239.9,275.3,244.5,267.1L244.5,267.1z"/>
	<path class="st36" d="M244.2,266.5l-13.9-25.9c-6.3,11.3-32.7,52.1-31.2,64.2c2,11.8,27.2,56.2,35.3,66.2l15.2-28.5
		c-6.1-7.5-37.8-29.6-39.3-38.5C209.2,294.9,239.4,275.1,244.2,266.5L244.2,266.5z"/>
	<path class="st37" d="M243.9,266l-13.7-25.6c-6.1,11-32.8,52.6-31.4,64.3c2,11.4,27.6,56.8,35.5,66.5l15.1-28.2
		c-6.4-7.8-37.5-29.8-39.1-39C209.1,294.6,239,274.8,243.9,266L243.9,266z"/>
	<path class="st38" d="M243.6,265.5L230,240.2c-5.9,10.7-33,53.1-31.6,64.5c1.9,11.1,28,57.4,35.6,66.8l14.9-27.9
		c-6.6-8-37.2-30-38.9-39.5C209,294.3,238.5,274.6,243.6,265.5L243.6,265.5z"/>
	<path class="st39" d="M243.3,264.9l-13.4-25c-5.8,10.4-33.1,53.6-31.8,64.7c1.9,10.8,28.3,58,35.8,67.1l14.8-27.6
		c-6.8-8.3-36.9-30.1-38.7-40C208.8,294.1,238.1,274.4,243.3,264.9L243.3,264.9z"/>
	<path class="st40" d="M243,264.4l-13.2-24.6c-5.6,10.1-33.3,54.1-31.9,64.9c1.8,10.5,28.7,58.6,35.9,67.5l14.6-27.3
		c-7-8.6-36.7-30.3-38.4-40.5C208.7,293.8,237.6,274.2,243,264.4L243,264.4z"/>
	<path class="st41" d="M242.8,263.9l-13.1-24.3c-5.4,9.8-33.4,54.6-32.1,65.1c1.8,10.2,29.1,59.2,36.1,67.8l14.5-27.1
		c-7.2-8.9-36.4-30.5-38.2-41C208.6,293.5,237.2,273.9,242.8,263.9L242.8,263.9z"/>
	<path class="st42" d="M242.5,263.3l-12.9-24c-5.3,9.5-33.6,55.1-32.3,65.2c1.7,9.9,29.4,59.8,36.2,68.1l14.3-26.8
		c-7.5-9.1-36.1-30.7-38-41.5C208.5,293.2,236.7,273.7,242.5,263.3L242.5,263.3z"/>
	<path class="st43" d="M242.2,262.8l-12.7-23.7c-5.1,9.2-33.7,55.6-32.5,65.4c1.7,9.5,29.8,60.4,36.4,68.4l14.2-26.5
		c-7.7-9.4-35.8-30.9-37.8-42C208.4,293,236.3,273.5,242.2,262.8L242.2,262.8z"/>
	<path class="st44" d="M241.9,262.3l-12.5-23.4c-4.9,8.9-33.8,56.1-32.7,65.6c1.6,9.2,30.2,61,36.5,68.8l14-26.2
		c-7.9-9.6-35.6-31.1-37.5-42.5C208.3,292.7,235.8,273.2,241.9,262.3L241.9,262.3z"/>
	<path class="st45" d="M241.6,261.7l-12.4-23.1c-4.8,8.5-34,56.6-32.8,65.8c1.5,8.9,30.5,61.6,36.7,69.1l13.9-25.9
		c-8.1-9.9-35.3-31.2-37.3-43C208.1,292.4,235.3,273,241.6,261.7L241.6,261.7z"/>
	<path class="st46" d="M241.3,261.2l-12.2-22.8c-4.6,8.2-34.1,57.1-33,65.9c1.5,8.6,30.9,62.2,36.8,69.4l13.7-25.7
		c-8.3-10.2-35-31.4-37.1-43.5C208,292.1,234.9,272.8,241.3,261.2L241.3,261.2z"/>
	<path class="st47" d="M241,260.7l-12-22.5c-4.4,7.9-34.3,57.6-33.2,66.1c1.4,8.3,31.3,62.8,37,69.7l13.6-25.4
		c-8.5-10.5-34.7-31.6-36.9-44C207.9,291.9,234.4,272.6,241,260.7L241,260.7z"/>
	<path class="st48" d="M240.8,260.1L228.9,238c-4.2,7.6-34.4,58.1-33.4,66.3c1.4,7.9,31.7,63.3,37.1,70l13.4-25.1
		c-8.8-10.7-34.5-31.8-36.7-44.5C207.8,291.6,234,272.3,240.8,260.1L240.8,260.1z"/>
	<path class="st49" d="M240.5,259.6l-11.7-21.8c-4.1,7.3-34.5,58.6-33.6,66.5c1.3,7.6,32,63.9,37.3,70.4l13.3-24.8
		c-9-11-34.2-32-36.4-45C207.7,291.3,233.5,272.1,240.5,259.6L240.5,259.6z"/>
	<path class="st50" d="M240.2,259.1l-11.5-21.5c-3.9,7-34.7,59.1-33.8,66.6c1.3,7.3,32.4,64.5,37.4,70.7l13.2-24.5
		c-9.2-11.3-33.9-32.2-36.2-45.5C207.6,291.1,233.1,271.9,240.2,259.1L240.2,259.1z"/>
	<path class="st51" d="M239.9,258.5l-11.4-21.2c-3.7,6.7-34.8,59.6-33.9,66.8c1.2,7,32.8,65.1,37.6,71l13-24.3
		c-9.4-11.5-33.6-32.4-36-46C207.4,290.8,232.6,271.6,239.9,258.5L239.9,258.5z"/>
	<path class="st52" d="M239.6,258l-11.2-20.9c-3.6,6.4-35,60.1-34.1,67c1.2,6.7,33.1,65.7,37.7,71.3l12.8-24
		c-9.7-11.8-33.3-32.6-35.8-46.5C207.3,290.5,232.1,271.4,239.6,258L239.6,258z"/>
	<path class="st53" d="M239.3,257.5l-11-20.6c-3.4,6.1-35.1,60.6-34.3,67.2c1.1,6.4,33.5,66.3,37.9,71.7l12.7-23.7
		c-9.9-12.1-33.1-32.8-35.5-47C207.2,290.2,231.7,271.2,239.3,257.5L239.3,257.5z"/>
	<path class="st54" d="M239,256.9l-10.9-20.3c-3.2,5.8-35.2,61.1-34.5,67.3c1,6,33.9,66.9,38,72l12.5-23.4
		c-10.1-12.3-32.8-32.9-35.3-47.5C207.1,289.9,231.2,271,239,256.9L239,256.9z"/>
	<path class="st55" d="M238.8,256.4l-10.7-20c-3.1,5.5-35.4,61.6-34.7,67.5c1,5.7,34.2,67.5,38.2,72.3L244,353
		c-10.3-12.6-32.5-33.1-35.1-48C207,289.7,230.8,270.8,238.8,256.4L238.8,256.4z"/>
	<path class="st56" d="M238.5,255.9L228,236.3c-2.9,5.2-35.5,62.1-34.8,67.7c0.9,5.4,34.6,68.1,38.3,72.6l12.2-22.9
		c-10.5-12.9-32.2-33.3-34.9-48.6C206.8,289.4,230.3,270.5,238.5,255.9L238.5,255.9z"/>
	<path class="st57" d="M238.2,255.3L227.8,236c-2.7,4.9-35.7,62.6-35,67.9c0.9,5.1,35,68.7,38.5,72.9l12.1-22.6
		c-10.8-13.1-32-33.5-34.7-49.1C206.7,289.1,229.9,270.3,238.2,255.3L238.2,255.3z"/>
	<path class="st58" d="M237.9,254.8l-10.2-19c-2.5,4.6-35.8,63.1-35.2,68.1c0.8,4.8,35.3,69.2,38.6,73.3l12-22.3
		c-11-13.4-31.7-33.7-34.5-49.6C206.6,288.9,229.4,270.1,237.9,254.8L237.9,254.8z"/>
	<path class="st59" d="M237.6,254.2l-10-18.7c-2.4,4.3-36,63.6-35.4,68.2c0.8,4.5,35.7,69.8,38.8,73.6l11.8-22
		c-11.2-13.7-31.4-33.9-34.2-50.1C206.5,288.6,229,269.8,237.6,254.2L237.6,254.2z"/>
	<path class="st60" d="M237.3,253.7l-9.9-18.4c-2.2,4-36.1,64.1-35.6,68.4c0.7,4.1,36.1,70.4,38.9,73.9l11.7-21.8
		c-11.4-13.9-31.1-34-34-50.6C206.4,288.3,228.5,269.6,237.3,253.7L237.3,253.7z"/>
	<path class="st61" d="M237,253.2l-9.7-18.1c-2,3.7-36.2,64.7-35.8,68.6c0.7,3.8,36.5,71,39.1,74.2l11.5-21.5
		c-11.6-14.2-30.8-34.2-33.8-51.1C206.2,288,228,269.4,237,253.2L237,253.2z"/>
	<path class="st62" d="M236.8,252.6l-9.5-17.8c-1.9,3.4-36.4,65.2-35.9,68.8c0.6,3.5,36.8,71.6,39.2,74.6L242,357
		c-11.8-14.5-30.6-34.4-33.6-51.6C206.1,287.8,227.6,269.1,236.8,252.6L236.8,252.6z"/>
	<path class="st63" d="M236.5,252.1l-9.4-17.5c-1.7,3-36.5,65.7-36.1,68.9c0.5,3.2,37.2,72.2,39.4,74.9l11.2-20.9
		c-12.1-14.8-30.3-34.6-33.3-52.1C206,287.5,227.1,268.9,236.5,252.1L236.5,252.1z"/>
	<path class="st64" d="M236.2,251.6l-9.2-17.1c-1.5,2.8-36.7,66.2-36.3,69.1c0.5,2.9,37.6,72.8,39.5,75.2l11.1-20.7
		c-12.3-15-30-34.8-33.1-52.6C205.9,287.2,226.7,268.7,236.2,251.6L236.2,251.6z"/>
	<path class="st65" d="M235.9,251l-9-16.8c-1.4,2.4-36.8,66.7-36.5,69.3c0.4,2.5,37.9,73.4,39.7,75.5l10.9-20.4
		c-12.5-15.3-29.7-35-32.9-53.1C205.8,286.9,226.2,268.5,235.9,251L235.9,251z"/>
	<path class="st66" d="M235.6,250.5l-8.9-16.5c-1.2,2.1-36.9,67.2-36.7,69.5c0.4,2.2,38.3,74,39.8,75.9l10.8-20.1
		c-12.7-15.5-29.5-35.2-32.7-53.6C205.7,286.6,225.7,268.2,235.6,250.5L235.6,250.5z"/>
	<path class="st67" d="M235.3,250l-8.7-16.2c-1,1.8-37.1,67.7-36.8,69.6s38.7,74.6,40,76.2l10.6-19.8
		c-12.9-15.8-29.2-35.4-32.5-54.1C205.6,286.4,225.3,268,235.3,250L235.3,250z"/>
	<path class="st68" d="M235,249.5l-8.5-15.9c-0.8,1.5-37.2,68.2-37,69.8c0.3,1.6,39,75.2,40.2,76.5l10.5-19.5
		c-13.2-16.1-28.9-35.5-32.2-54.6C205.4,286.1,224.9,267.8,235,249.5L235,249.5z"/>
	<path class="st69" d="M234.7,248.9l-8.3-15.6c-0.7,1.2-37.4,68.7-37.2,70s39.4,75.8,40.3,76.8l10.3-19.3
		c-13.4-16.4-28.6-35.7-32-55.1C205.3,285.8,224.4,267.5,234.7,248.9L234.7,248.9z"/>
	<path class="st70" d="M234.5,248.4l-8.2-15.3c-0.5,0.9-37.5,69.2-37.4,70.2c0.2,1,39.8,76.4,40.5,77.1l10.2-19
		c-13.6-16.6-28.4-35.9-31.8-55.6C205.2,285.6,224,267.3,234.5,248.4L234.5,248.4z"/>
	<path class="st71" d="M234.2,247.9l-8-14.9c-0.3,0.6-37.7,69.7-37.6,70.4c0.1,0.6,40.2,76.9,40.6,77.5l10-18.7
		c-13.8-16.9-28.1-36.1-31.6-56.1C205.1,285.3,223.5,267.1,234.2,247.9L234.2,247.9z"/>
	<path class="st72" d="M233.9,247.3l-7.8-14.6c-0.2,0.3-37.8,70.2-37.8,70.5c0.1,0.3,40.5,77.5,40.8,77.8l9.9-18.4
		c-14-17.2-27.8-36.3-31.3-56.6C205,285,223,266.9,233.9,247.3L233.9,247.3z"/>
	<path class="st0" d="M233.6,246.8l-7.7-14.3L188,303.2l40.9,78.1l9.7-18.2c-14.3-17.4-27.5-36.5-31.1-57.1
		C204.8,284.7,222.6,266.6,233.6,246.8L233.6,246.8z"/>
</g>
<polygon class="st7" points="334.5,583 283.5,583 309.3,535 "/>
<line class="st6" x1="309.3" y1="535" x2="228.9" y2="381.3"/>
<line class="st73" x1="311.5" y1="356" x2="311.5" y2="439"/>
<line class="st73" x1="311.5" y1="167" x2="311.5" y2="250"/>
<line class="st73" x1="277.5" y1="390" x2="347.5" y2="390"/>
<line class="st73" x1="277.5" y1="216" x2="347.5" y2="216"/>
<path class="st73" d="M347.5,232v-99c-0.8-19.4,7.6-28.4,25-27"/>
<path class="st73" d="M277.5,232v-99c0.8-19.4-7.6-28.4-25-27"/>
<path class="st73" d="M277.5,374v99c0.8,19.4-7.6,28.4-25,27"/>
<path class="st73" d="M347.5,374v99c-0.8,19.4,7.6,28.4,25,27"/>
<line class="st73" x1="517.5" y1="253" x2="517.5" y2="354"/>
<line class="st73" x1="105.5" y1="253" x2="105.5" y2="354"/>
<line class="st73" x1="504.5" y1="253" x2="550.5" y2="253"/>
<line class="st73" x1="504.5" y1="353" x2="550.5" y2="353"/>
<line class="st73" x1="72.5" y1="253" x2="118.5" y2="253"/>
<line class="st73" x1="72.5" y1="353" x2="118.5" y2="353"/>
<line class="st73" x1="485.2" y1="54.4" x2="393.7" y2="225.4"/>
<line class="st73" x1="228.9" y1="381.3" x2="137.5" y2="552"/>
<line class="st73" x1="225.9" y1="232.5" x2="131.5" y2="56.4"/>
<line class="st73" x1="479.2" y1="556" x2="388.5" y2="387.5"/>
<g>
	<line class="st73" x1="464.5" y1="180" x2="391.5" y2="141"/>
	<line class="st73" x1="459.6" y1="188.3" x2="481.4" y2="147.7"/>
	<line class="st73" x1="387.6" y1="149.3" x2="409.4" y2="108.7"/>
</g>
<g>
	<line class="st73" x1="385.7" y1="469" x2="458.6" y2="429.9"/>
	<line class="st73" x1="381.5" y1="460.3" x2="403.1" y2="500.9"/>
	<line class="st73" x1="453.9" y1="422.1" x2="475.5" y2="462.7"/>
</g>
<g>
	<line class="st73" x1="159" y1="425.5" x2="231.4" y2="465.7"/>
	<line class="st73" x1="164.1" y1="417.3" x2="141.6" y2="457.5"/>
	<line class="st73" x1="235.4" y1="457.5" x2="212.9" y2="497.7"/>
</g>
<g>
	<line class="st73" x1="223.5" y1="139.6" x2="150" y2="177.7"/>
	<line class="st73" x1="227.5" y1="148.3" x2="206.4" y2="107.4"/>
	<line class="st73" x1="154.6" y1="185.6" x2="133.5" y2="144.7"/>
</g>
<line class="st73" x1="32.5" y1="303" x2="583.5" y2="303"/>
<polygon class="st74" points="409.5,303.5 310.5,303 310.5,250.5 310.5,250.5 364.8,279.5 "/>
<polygon class="st7" points="310.5,250.5 310.5,303 212.5,302.5 252.2,281.5 "/>
<polygon class="st75" points="310.5,303 310.5,355 258,326.9 212.5,302.5 "/>
<polygon class="st7" points="409.5,303.5 357.9,330.8 311.5,355.5 310.5,355 310.5,303 "/>
<path class="st76" d="M283.6,582H88.3c-15.7,0-29.8-6.6-39.8-17.1"/>
<path class="st76" d="M569.4,562.8c-10,11.8-25,19.2-41.7,19.2H334.4"/>
<path class="st76" d="M333.4,33h194.3c16.2,0,30.7,7,40.7,18.1"/>
<path class="st76" d="M53.6,45.4C63.1,37.6,75.2,33,88.3,33h204.3"/>
<path class="st0" d="M535,25c30.4,0,55,24.6,55,55v455c0,30.4-24.6,55-55,55H80c-30.4,0-55-24.6-55-55V80c0-30.4,24.6-55,55-55H535
	 M535,0H80C35.9,0,0,35.9,0,80v455c0,44.1,35.9,80,80,80h455c44.1,0,80-35.9,80-80V80C615,35.9,579.1,0,535,0L535,0z"/>
</svg>
