<?xml version="1.0" encoding="utf-8"?>
<!-- Generator: Adobe Illustrator 28.0.0, SVG Export Plug-In . SVG Version: 6.00 Build 0)  -->
<svg version="1.1" id="Layer_4" xmlns="http://www.w3.org/2000/svg" xmlns:xlink="http://www.w3.org/1999/xlink" x="0px" y="0px"
	 viewBox="0 0 565 565" style="enable-background:new 0 0 565 565;" xml:space="preserve">
<style type="text/css">
	.st0{fill:#E92D22;}
	.st1{fill:url(#SVGID_1_);}
	.st2{fill:url(#SVGID_00000098183507023624589770000016722684372265598100_);}
	.st3{fill:url(#SVGID_00000046330742393100291770000006910307511485811862_);}
	.st4{fill:url(#SVGID_00000109004484077687237970000015890742192334808215_);}
	.st5{fill:url(#SVGID_00000157987661749554767720000016286468334512340360_);}
	.st6{fill:none;}
	.st7{fill:#F62F24;}
	.st8{fill:#A92119;}
	.st9{fill:#AA2119;}
	.st10{fill:#AB2119;}
	.st11{fill:#AC2219;}
	.st12{fill:#AD221A;}
	.st13{fill:#AE221A;}
	.st14{fill:#AF221A;}
	.st15{fill:#B0221A;}
	.st16{fill:#B1221A;}
	.st17{fill:#B2231A;}
	.st18{fill:#B3231A;}
	.st19{fill:#B4231B;}
	.st20{fill:#B5231B;}
	.st21{fill:#B6231B;}
	.st22{fill:#B7241B;}
	.st23{fill:#B8241B;}
	.st24{fill:#B9241B;}
	.st25{fill:#BA241B;}
	.st26{fill:#BB241B;}
	.st27{fill:#BC251C;}
	.st28{fill:#BD251C;}
	.st29{fill:#BE251C;}
	.st30{fill:#BF251C;}
	.st31{fill:#C0251C;}
	.st32{fill:#C1251C;}
	.st33{fill:#C2261C;}
	.st34{fill:#C3261D;}
	.st35{fill:#C4261D;}
	.st36{fill:#C5261D;}
	.st37{fill:#C6261D;}
	.st38{fill:#C7271D;}
	.st39{fill:#C8271D;}
	.st40{fill:#C9271D;}
	.st41{fill:#C9271E;}
	.st42{fill:#CA271E;}
	.st43{fill:#CB271E;}
	.st44{fill:#CC281E;}
	.st45{fill:#CD281E;}
	.st46{fill:#CE281E;}
	.st47{fill:#CF281E;}
	.st48{fill:#D0281F;}
	.st49{fill:#D1291F;}
	.st50{fill:#D2291F;}
	.st51{fill:#D3291F;}
	.st52{fill:#D4291F;}
	.st53{fill:#D5291F;}
	.st54{fill:#D6291F;}
	.st55{fill:#D72A20;}
	.st56{fill:#D82A20;}
	.st57{fill:#D92A20;}
	.st58{fill:#DA2A20;}
	.st59{fill:#DB2A20;}
	.st60{fill:#DC2B20;}
	.st61{fill:#DD2B20;}
	.st62{fill:#DE2B20;}
	.st63{fill:#DF2B21;}
	.st64{fill:#E02B21;}
	.st65{fill:#E12C21;}
	.st66{fill:#E22C21;}
	.st67{fill:#E32C21;}
	.st68{fill:#E42C21;}
	.st69{fill:#E52C21;}
	.st70{fill:#E62C22;}
	.st71{fill:#E72D22;}
	.st72{fill:#E82D22;}
	.st73{fill:none;stroke:#F62F24;stroke-width:4;stroke-miterlimit:10;}
	.st74{fill:#F64134;}
	.st75{fill:#CF2122;}
	.st76{fill:none;stroke:#9D272A;stroke-width:3;stroke-miterlimit:10;}
</style>
<path class="st0" d="M55,0h455c30.4,0,55,24.6,55,55v455c0,30.4-24.6,55-55,55H55c-30.4,0-55-24.6-55-55V55C0,24.6,24.6,0,55,0z"/>
<linearGradient id="SVGID_1_" gradientUnits="userSpaceOnUse" x1="162.5" y1="187.88" x2="6.9999" y2="187.88" gradientTransform="matrix(1 0 0 -1 0 468)">
	<stop  offset="0.14" style="stop-color:#E92D22"/>
	<stop  offset="0.3" style="stop-color:#E12B24"/>
	<stop  offset="0.53" style="stop-color:#CB282B"/>
	<stop  offset="0.82" style="stop-color:#A82335"/>
	<stop  offset="0.89" style="stop-color:#9E2239"/>
</linearGradient>
<path class="st1" d="M162.5,278.2L22.1,540.8C12.7,531,7,517.7,7,503V62c0-17.2,7.9-32.5,20.2-42.6L162.5,278.2L162.5,278.2z"/>
<linearGradient id="SVGID_00000042705784744178095070000016628447280563241878_" gradientUnits="userSpaceOnUse" x1="408.6" y1="186.045" x2="558" y2="186.045" gradientTransform="matrix(1 0 0 -1 0 468)">
	<stop  offset="0.14" style="stop-color:#E92D22"/>
	<stop  offset="0.3" style="stop-color:#E12B24"/>
	<stop  offset="0.53" style="stop-color:#CB282B"/>
	<stop  offset="0.82" style="stop-color:#A82335"/>
	<stop  offset="0.89" style="stop-color:#9E2239"/>
</linearGradient>
<path style="fill:url(#SVGID_00000042705784744178095070000016628447280563241878_);" d="M558,62v441c0,13.6-5,26.1-13.2,35.7
	L408.6,277.5L543.9,25.2C552.7,35,558,47.9,558,62z"/>
<radialGradient id="SVGID_00000155129728794933134700000014732549396453766296_" cx="28.1227" cy="250.5633" r="402.8596" gradientTransform="matrix(1.047176e-02 -0.9999 -0.52 -5.445314e-03 414.964 312.0114)" gradientUnits="userSpaceOnUse">
	<stop  offset="0" style="stop-color:#4C2859"/>
	<stop  offset="0.79" style="stop-color:#B72209"/>
	<stop  offset="0.99" style="stop-color:#B72209"/>
</radialGradient>
<path style="fill:url(#SVGID_00000155129728794933134700000014732549396453766296_);" d="M27.2,19.4C36.7,11.6,48.8,7,62,7h205
	l20.2,38.7L308,7h195c16.2,0,30.8,7,40.9,18.2L408.6,277.5l136.2,261.2C534.8,550.5,519.8,558,503,558H309l-25.2-48L258,558H62
	c-15.7,0-29.9-6.6-39.9-17.2l140.4-262.7L27.2,19.4"/>
<g>
	
		<radialGradient id="SVGID_00000088842369674917576190000015437864853595661987_" cx="346.905" cy="190" r="170.1814" gradientTransform="matrix(1 0 0 -1 0 468)" gradientUnits="userSpaceOnUse">
		<stop  offset="0" style="stop-color:#842B32"/>
		<stop  offset="7.000000e-02" style="stop-color:#922B2C"/>
		<stop  offset="0.21" style="stop-color:#A92B23"/>
		<stop  offset="0.35" style="stop-color:#B92B1C"/>
		<stop  offset="0.52" style="stop-color:#C22B19"/>
		<stop  offset="0.74" style="stop-color:#C62B18"/>
		<stop  offset="0.84" style="stop-color:#C82B18"/>
		<stop  offset="0.9" style="stop-color:#D12B1A"/>
		<stop  offset="0.95" style="stop-color:#DF2D1E"/>
		<stop  offset="1" style="stop-color:#F42E23"/>
		<stop  offset="1" style="stop-color:#F62F24"/>
	</radialGradient>
	<polyline style="fill:url(#SVGID_00000088842369674917576190000015437864853595661987_);" points="286.6,45.6 409.4,276.9 
		284.4,510.4 	"/>
	
		<radialGradient id="SVGID_00000160183739687078423740000015843280435492454331_" cx="224.095" cy="190" r="170.1814" gradientTransform="matrix(1 0 0 -1 0 468)" gradientUnits="userSpaceOnUse">
		<stop  offset="0" style="stop-color:#842B32"/>
		<stop  offset="7.000000e-02" style="stop-color:#922B2C"/>
		<stop  offset="0.21" style="stop-color:#A92B23"/>
		<stop  offset="0.35" style="stop-color:#B92B1C"/>
		<stop  offset="0.52" style="stop-color:#C22B19"/>
		<stop  offset="0.74" style="stop-color:#C62B18"/>
		<stop  offset="0.84" style="stop-color:#C82B18"/>
		<stop  offset="0.9" style="stop-color:#D12B1A"/>
		<stop  offset="0.95" style="stop-color:#DF2D1E"/>
		<stop  offset="1" style="stop-color:#F42E23"/>
		<stop  offset="1" style="stop-color:#F62F24"/>
	</radialGradient>
	<polyline style="fill:url(#SVGID_00000160183739687078423740000015843280435492454331_);" points="284.4,510.4 161.6,279.1 
		286.6,45.6 	"/>
</g>
<line class="st6" x1="287.2" y1="45.7" x2="200.4" y2="207.5"/>
<polygon class="st7" points="308,7 287.2,45.7 267,7 "/>
<line class="st6" x1="368.2" y1="200.4" x2="287.2" y2="45.7"/>
<g>
	<path class="st8" d="M360.7,214.5l-21.4,40l44.7,23.9l-51.6,27.4l21.9,40.6c14.3-21.8,27.3-43.5,43.7-63.5
		C392.4,256.7,374.4,236.6,360.7,214.5L360.7,214.5z"/>
	<path class="st9" d="M360.8,214.2l-21.2,39.7c0.2,0.3,44.5,24.2,44.6,24.6c-0.2,0.3-51.2,27.6-51.4,27.9l21.7,40.2
		c14-21.5,27.6-44.1,43.7-63.8C392.6,257.1,374.4,236.1,360.8,214.2L360.8,214.2z"/>
	<path class="st10" d="M360.9,214l-21,39.3c0.4,0.7,44.3,24.5,44.5,25.3c-0.5,0.6-50.9,27.8-51.3,28.5l21.5,39.9
		c13.8-21.1,27.9-44.7,43.7-64.1C392.9,257.4,374.2,235.5,360.9,214L360.9,214z"/>
	<path class="st11" d="M361,213.8l-20.8,38.9c0.6,1,44.1,24.8,44.4,26c-0.8,0.9-50.5,28-51.2,29l21.3,39.5
		c13.6-20.8,28.2-45.4,43.8-64.4C393.1,257.7,374.2,235,361,213.8L361,213.8z"/>
	<path class="st12" d="M361.2,213.6l-20.6,38.5c0.8,1.4,43.9,25.1,44.3,26.7c-1,1.2-50.2,28.2-51.1,29.6l21.1,39.1
		c13.4-20.5,28.5-46,43.8-64.8C393.4,258,374.1,234.4,361.2,213.6L361.2,213.6z"/>
	<path class="st13" d="M361.3,213.4l-20.4,38.1c1.1,1.7,43.7,25.4,44.2,27.4c-1.3,1.5-49.9,28.5-51,30.1l20.9,38.7
		c13.2-20.1,28.7-46.6,43.8-65.1C393.6,258.4,374,233.9,361.3,213.4L361.3,213.4z"/>
	<path class="st14" d="M361.4,213.2l-20.2,37.7c1.3,2,43.5,25.6,44,28.1c-1.5,1.9-49.5,28.7-50.8,30.7l20.7,38.4
		c12.9-19.8,29-47.3,43.9-65.4C393.9,258.7,373.9,233.3,361.4,213.2L361.4,213.2z"/>
	<path class="st15" d="M361.5,213l-19.9,37.3c1.5,2.4,43.3,25.9,43.9,28.7c-1.8,2.1-49.2,28.9-50.7,31.3l20.5,38
		c12.7-19.5,29.3-47.9,43.9-65.8C394.1,259,373.8,232.8,361.5,213L361.5,213z"/>
	<path class="st16" d="M361.6,212.7l-19.7,36.9c1.7,2.7,43.1,26.2,43.8,29.4c-2,2.5-48.8,29.1-50.6,31.8l20.2,37.6
		c12.5-19.1,29.6-48.6,43.9-66.1C394.4,259.3,373.7,232.2,361.6,212.7z"/>
	<path class="st17" d="M361.7,212.5L342.2,249c1.9,3.1,42.9,26.5,43.7,30.1c-2.3,2.8-48.5,29.4-50.5,32.4l20,37.2
		c12.3-18.8,29.8-49.2,44-66.4C394.6,259.6,373.6,231.6,361.7,212.5z"/>
	<path class="st18" d="M361.8,212.3l-19.3,36.1c2.1,3.4,42.7,26.8,43.6,30.8c-2.5,3.1-48.2,29.6-50.3,32.9l19.8,36.8
		c12.1-18.5,30.1-49.9,44-66.8C394.9,259.9,373.5,231.1,361.8,212.3L361.8,212.3z"/>
	<path class="st19" d="M362,212.1l-19.1,35.7c2.3,3.8,42.5,27,43.5,31.5c-2.8,3.4-47.8,29.8-50.2,33.5l19.6,36.5
		c11.8-18.1,30.4-50.5,44-67.1C395.1,260.3,373.4,230.5,362,212.1L362,212.1z"/>
	<path class="st20" d="M362.1,211.9l-18.9,35.3c2.5,4.1,42.3,27.3,43.4,32.2c-3,3.7-47.5,30-50.1,34l19.4,36.1
		c11.6-17.8,30.7-51.1,44-67.4C395.4,260.6,373.3,229.9,362.1,211.9L362.1,211.9z"/>
	<path class="st21" d="M362.2,211.6l-18.7,34.9c2.8,4.4,42.1,27.6,43.2,32.9c-3.3,4-47.1,30.2-50,34.6l19.2,35.7
		c11.4-17.4,31-51.8,44.1-67.8C395.6,260.9,373.2,229.4,362.2,211.6z"/>
	<path class="st22" d="M362.3,211.4l-18.4,34.5c3,4.8,41.9,27.9,43.1,33.5c-3.5,4.3-46.8,30.5-49.9,35.1l19,35.3
		c11.2-17.1,31.3-52.4,44.1-68.1C395.9,261.2,373.1,228.8,362.3,211.4L362.3,211.4z"/>
	<path class="st23" d="M362.4,211.2l-18.2,34.1c3.2,5.1,41.7,28.2,43,34.2c-3.8,4.6-46.5,30.7-49.7,35.7l18.8,35
		c11-16.8,31.5-53,44.1-68.4C396.1,261.5,373,228.3,362.4,211.2L362.4,211.2z"/>
	<path class="st24" d="M362.5,211l-18,33.7c3.4,5.5,41.5,28.5,42.9,34.9c-4,4.9-46.1,30.9-49.6,36.2l18.6,34.6
		c10.8-16.4,31.8-53.7,44.2-68.8C396.4,261.9,372.9,227.7,362.5,211L362.5,211z"/>
	<path class="st25" d="M362.7,210.8L344.9,244c3.6,5.8,41.3,28.7,42.8,35.6c-4.3,5.2-45.8,31.1-49.5,36.8l18.4,34.2
		c10.5-16.1,32.1-54.3,44.2-69.1C396.6,262.2,372.8,227.2,362.7,210.8L362.7,210.8z"/>
	<path class="st26" d="M362.8,210.6l-17.6,32.9c3.8,6.1,41.1,29,42.7,36.3c-4.5,5.5-45.4,31.3-49.4,37.4l18.2,33.8
		c10.3-15.8,32.4-55,44.2-69.4C396.9,262.5,372.7,226.6,362.8,210.6L362.8,210.6z"/>
	<path class="st27" d="M362.9,210.4l-17.4,32.5c4,6.5,40.9,29.3,42.6,37c-4.8,5.9-45.1,31.5-49.3,37.9l18,33.4
		c10.1-15.4,32.7-55.6,44.2-69.8C397.1,262.8,372.6,226.1,362.9,210.4L362.9,210.4z"/>
	<path class="st28" d="M363,210.1l-17.2,32.1c4.2,6.8,40.7,29.6,42.5,37.7c-5,6.1-44.8,31.8-49.1,38.5l17.8,33.1
		c9.9-15.1,33-56.2,44.3-70.1C397.4,263.1,372.5,225.5,363,210.1L363,210.1z"/>
	<path class="st29" d="M363.1,209.9l-16.9,31.7c4.4,7.2,40.5,29.9,42.3,38.4c-5.3,6.5-44.4,32-49,39l17.6,32.7
		c9.7-14.8,33.2-56.9,44.3-70.4C397.6,263.5,372.5,225,363.1,209.9L363.1,209.9z"/>
	<path class="st30" d="M363.2,209.7L346.5,241c4.7,7.5,40.3,30.1,42.2,39c-5.5,6.8-44.1,32.2-48.9,39.6l17.4,32.3
		c9.4-14.4,33.5-57.5,44.3-70.8C397.9,263.8,372.3,224.4,363.2,209.7L363.2,209.7z"/>
	<path class="st31" d="M363.4,209.5l-16.5,30.9c4.9,7.9,40.1,30.4,42.1,39.7c-5.8,7.1-43.7,32.4-48.8,40.1l17.2,31.9
		c9.2-14.1,33.8-58.2,44.4-71.1C398.1,264.1,372.2,223.8,363.4,209.5L363.4,209.5z"/>
	<path class="st32" d="M363.5,209.3l-16.3,30.5c5.1,8.2,39.9,30.7,42,40.4c-6,7.4-43.4,32.6-48.7,40.7l17,31.5
		c9-13.8,34.1-58.8,44.4-71.4C398.4,264.4,372.1,223.3,363.5,209.3z"/>
	<path class="st33" d="M363.6,209l-16.1,30.1c5.3,8.5,39.7,31,41.9,41.1c-6.3,7.7-43,32.9-48.5,41.2l16.8,31.2
		c8.8-13.4,34.4-59.5,44.4-71.8C398.6,264.7,372,222.7,363.6,209L363.6,209z"/>
	<path class="st34" d="M363.7,208.8l-15.9,29.7c5.5,8.9,39.5,31.3,41.8,41.8c-6.5,8-42.7,33.1-48.4,41.8l16.6,30.8
		c8.5-13.1,34.6-60.1,44.5-72.1C398.9,265,372,222.1,363.7,208.8L363.7,208.8z"/>
	<path class="st35" d="M363.8,208.6l-15.7,29.3c5.7,9.2,39.3,31.6,41.7,42.5c-6.8,8.3-42.4,33.3-48.3,42.4l16.4,30.4
		c8.3-12.8,34.9-60.7,44.5-72.4C399.1,265.3,371.9,221.6,363.8,208.6L363.8,208.6z"/>
	<path class="st36" d="M363.9,208.4l-15.5,28.9c5.9,9.6,39.1,31.8,41.5,43.1c-7,8.6-42,33.5-48.2,42.9l16.2,30
		c8.1-12.4,35.2-61.4,44.5-72.8C399.4,265.7,371.8,221,363.9,208.4L363.9,208.4z"/>
	<path class="st37" d="M364,208.2l-15.2,28.5c6.1,9.9,38.9,32.1,41.4,43.8c-7.3,8.9-41.7,33.7-48,43.5l16,29.7
		c7.9-12.1,35.5-62,44.5-73.1C399.6,266,371.7,220.5,364,208.2L364,208.2z"/>
	<path class="st38" d="M364.2,208l-15,28.1c6.3,10.2,38.7,32.4,41.3,44.5c-7.5,9.2-41.3,34-47.9,44l15.8,29.3
		c7.7-11.7,35.8-62.6,44.6-73.4C399.9,266.3,371.6,219.9,364.2,208L364.2,208z"/>
	<path class="st39" d="M364.3,207.7l-14.8,27.7c6.6,10.6,38.5,32.7,41.2,45.2c-7.8,9.5-41,34.2-47.8,44.6l15.6,28.9
		c7.5-11.4,36-63.3,44.6-73.8C400.1,266.6,371.5,219.4,364.3,207.7L364.3,207.7z"/>
	<path class="st40" d="M364.4,207.5l-14.6,27.3c6.8,10.9,38.3,33,41.1,45.9c-8.1,9.9-40.7,34.4-47.7,45.1l15.4,28.5
		c7.2-11.1,36.3-63.9,44.6-74.1C400.4,266.9,371.4,218.8,364.4,207.5L364.4,207.5z"/>
	<path class="st41" d="M364.5,207.3l-14.4,26.9c7,11.3,38.1,33.2,41,46.6c-8.3,10.1-40.3,34.6-47.6,45.7l15.2,28.1
		c7-10.7,36.6-64.6,44.7-74.4C400.6,267.3,371.3,218.2,364.5,207.3L364.5,207.3z"/>
	<path class="st42" d="M364.6,207.1l-14.2,26.5c7.2,11.6,37.9,33.5,40.8,47.3c-8.6,10.5-40,34.8-47.4,46.2l15,27.8
		c6.8-10.4,36.9-65.2,44.7-74.7C400.9,267.6,371.2,217.7,364.6,207.1L364.6,207.1z"/>
	<path class="st43" d="M364.8,206.9l-14,26.1c7.4,12,37.7,33.8,40.7,48c-8.8,10.8-39.6,35.1-47.3,46.8l14.8,27.4
		c6.6-10.1,37.2-65.9,44.7-75.1C401.1,267.9,371.1,217.1,364.8,206.9L364.8,206.9z"/>
	<path class="st44" d="M364.9,206.7l-13.7,25.7c7.6,12.3,37.5,34.1,40.6,48.6c-9.1,11.1-39.3,35.3-47.2,47.4l14.5,27
		c6.4-9.7,37.5-66.5,44.8-75.4C401.4,268.2,371,216.6,364.9,206.7L364.9,206.7z"/>
	<path class="st45" d="M365,206.4l-13.5,25.3c7.8,12.6,37.3,34.4,40.5,49.3c-9.3,11.4-39,35.5-47.1,47.9l14.3,26.6
		c6.1-9.4,37.7-67.1,44.8-75.7C401.6,268.5,370.9,216,365,206.4L365,206.4z"/>
	<path class="st46" d="M365.1,206.2l-13.3,24.9c8,13,37.1,34.7,40.4,50c-9.6,11.7-38.6,35.7-47,48.5l14.2,26.3
		c5.9-9.1,38-67.8,44.8-76.1C401.9,268.9,370.8,215.4,365.1,206.2L365.1,206.2z"/>
	<path class="st47" d="M365.2,206l-13.1,24.5c8.2,13.3,36.9,35,40.3,50.7c-9.8,12-38.3,35.9-46.8,49l13.9,25.9
		c5.7-8.7,38.3-68.4,44.8-76.4C402.1,269.2,370.7,214.9,365.2,206L365.2,206z"/>
	<path class="st48" d="M365.3,205.8l-12.9,24.1c8.5,13.6,36.7,35.2,40.2,51.4c-10.1,12.3-37.9,36.2-46.7,49.6l13.7,25.5
		c5.5-8.4,38.6-69,44.9-76.7C402.4,269.5,370.6,214.3,365.3,205.8L365.3,205.8z"/>
	<path class="st49" d="M365.5,205.6l-12.7,23.7c8.7,14,36.5,35.5,40,52.1c-10.3,12.6-37.6,36.4-46.6,50.1l13.5,25.1
		c5.3-8,38.9-69.7,44.9-77.1C402.6,269.8,370.5,213.8,365.5,205.6L365.5,205.6z"/>
	<path class="st50" d="M365.6,205.4l-12.5,23.3c8.9,14.3,36.3,35.8,39.9,52.8c-10.6,12.9-37.3,36.6-46.5,50.7l13.3,24.8
		c5-7.7,39.2-70.3,44.9-77.4C402.8,270.1,370.4,213.2,365.6,205.4L365.6,205.4z"/>
	<path class="st51" d="M365.7,205.1L353.4,228c9.1,14.7,36.1,36.1,39.8,53.4c-10.8,13.2-36.9,36.8-46.3,51.2l13.1,24.4
		c4.8-7.4,39.4-71,45-77.7C403.1,270.5,370.3,212.6,365.7,205.1L365.7,205.1z"/>
	<path class="st52" d="M365.8,204.9l-12,22.5c9.3,15,35.9,36.4,39.7,54.1c-11.1,13.5-36.6,37-46.2,51.8l12.9,24
		c4.6-7,39.7-71.6,45-78.1C403.3,270.8,370.2,212.1,365.8,204.9L365.8,204.9z"/>
	<path class="st53" d="M365.9,204.7l-11.8,22.1c9.5,15.4,35.7,36.6,39.6,54.8c-11.3,13.8-36.2,37.3-46.1,52.4l12.7,23.6
		c4.4-6.7,40-72.2,45-78.4C403.6,271.1,370.1,211.5,365.9,204.7z"/>
	<path class="st54" d="M366,204.5l-11.6,21.7c9.7,15.7,35.5,36.9,39.5,55.5c-11.6,14.1-35.9,37.5-46,52.9l12.5,23.2
		c4.2-6.4,40.3-72.9,45.1-78.7C403.9,271.4,370.1,211,366,204.5L366,204.5z"/>
	<path class="st55" d="M366.1,204.3l-11.4,21.3c10,16,35.3,37.2,39.4,56.2c-11.8,14.5-35.5,37.7-45.9,53.5l12.3,22.9
		c4-6,40.6-73.5,45.1-79.1C404.1,271.7,370,210.4,366.1,204.3z"/>
	<path class="st56" d="M366.3,204.1l-11.2,20.9c10.2,16.4,35.1,37.5,39.2,56.9c-12.1,14.8-35.2,37.9-45.7,54l12.1,22.5
		c3.7-5.7,40.8-74.2,45.1-79.4C404.4,272,369.9,209.9,366.3,204.1L366.3,204.1z"/>
	<path class="st57" d="M366.4,203.8l-11,20.5c10.4,16.7,34.9,37.8,39.1,57.6c-12.3,15.1-34.9,38.1-45.6,54.6l11.9,22.1
		c3.5-5.4,41.1-74.8,45.2-79.7C404.6,272.4,369.8,209.3,366.4,203.8L366.4,203.8z"/>
	<path class="st58" d="M366.5,203.6l-10.8,20.1c10.6,17.1,34.7,38,39,58.2c-12.6,15.4-34.5,38.4-45.5,55.1l11.7,21.7
		c3.3-5,41.4-75.4,45.2-80.1C404.9,272.7,369.7,208.7,366.5,203.6L366.5,203.6z"/>
	<path class="st59" d="M366.6,203.4l-10.5,19.7c10.8,17.4,34.5,38.3,38.9,58.9c-12.8,15.7-34.2,38.6-45.4,55.7l11.5,21.4
		c3.1-4.7,41.7-76.1,45.2-80.4C405.1,273,369.6,208.2,366.6,203.4L366.6,203.4z"/>
	<path class="st60" d="M366.7,203.2l-10.3,19.3c11,17.8,34.3,38.6,38.8,59.6c-13.1,16-33.8,38.8-45.3,56.2l11.3,21
		c2.8-4.4,42-76.7,45.2-80.7C405.3,273.3,369.5,207.6,366.7,203.2L366.7,203.2z"/>
	<path class="st61" d="M366.8,203l-10.1,18.9c11.2,18.1,34.1,38.9,38.7,60.3c-13.3,16.3-33.5,39-45.1,56.8l11.1,20.6
		c2.6-4,42.2-77.4,45.3-81C405.6,273.6,369.4,207.1,366.8,203L366.8,203z"/>
	<path class="st62" d="M367,202.8l-9.9,18.5c11.4,18.4,33.9,39.2,38.6,61c-13.6,16.6-33.2,39.2-45,57.3l10.9,20.2
		c2.4-3.7,42.5-78,45.3-81.4C405.9,274,369.3,206.5,367,202.8L367,202.8z"/>
	<path class="st63" d="M367.1,202.5l-9.7,18.1c11.6,18.8,33.7,39.5,38.5,61.7C382,299.2,363,321.8,351,340.2l10.7,19.8
		c2.2-3.4,42.8-78.6,45.3-81.7C406.1,274.3,369.2,205.9,367.1,202.5L367.1,202.5z"/>
	<path class="st64" d="M367.2,202.3l-9.5,17.7c11.8,19.1,33.5,39.7,38.3,62.4c-14.1,17.2-32.5,39.7-44.8,58.5l10.5,19.5
		c2-3,43.1-79.3,45.4-82.1C406.4,274.6,369.1,205.4,367.2,202.3L367.2,202.3z"/>
	<path class="st65" d="M367.3,202.1l-9.2,17.3c12.1,19.5,33.3,40,38.2,63c-14.3,17.5-32.2,39.9-44.7,59l10.3,19.1
		c1.8-2.7,43.4-79.9,45.4-82.4C406.6,274.9,369,204.8,367.3,202.1L367.3,202.1z"/>
	<path class="st66" d="M367.4,201.9l-9,16.9c12.3,19.8,33.1,40.3,38.1,63.7c-14.6,17.8-31.8,40.1-44.5,59.6l10.1,18.7
		c1.5-2.4,43.7-80.6,45.4-82.7C406.8,275.2,368.9,204.3,367.4,201.9L367.4,201.9z"/>
	<path class="st67" d="M367.5,201.7l-8.8,16.5c12.5,20.1,32.9,40.6,38,64.4c-14.8,18.1-31.5,40.3-44.4,60.1l9.9,18.3
		c1.3-2,43.9-81.2,45.5-83.1C407.1,275.6,368.8,203.7,367.5,201.7L367.5,201.7z"/>
	<path class="st68" d="M367.7,201.5l-8.6,16.1c12.7,20.5,32.7,40.9,37.9,65.1c-15.1,18.5-31.1,40.5-44.3,60.7l9.7,18
		c1.1-1.7,44.2-81.8,45.5-83.4C407.4,275.9,368.7,203.1,367.7,201.5L367.7,201.5z"/>
	<path class="st69" d="M367.8,201.2l-8.4,15.7c12.9,20.8,32.5,41.2,37.8,65.8c-15.3,18.8-30.8,40.8-44.2,61.2l9.5,17.6
		c0.9-1.3,44.5-82.5,45.5-83.7C407.6,276.2,368.6,202.6,367.8,201.2L367.8,201.2z"/>
	<path class="st70" d="M367.9,201l-8.2,15.3c13.1,21.2,32.3,41.4,37.7,66.5c-15.6,19.1-30.4,41-44,61.8l9.3,17.2
		c0.7-1,44.8-83.1,45.5-84C407.9,276.5,368.5,202,367.9,201L367.9,201z"/>
	<path class="st71" d="M368,200.8l-8,14.9c13.3,21.5,32.1,41.7,37.5,67.2c-15.9,19.4-30.1,41.2-43.9,62.3l9.1,16.8
		c0.4-0.7,45.1-83.8,45.6-84.4C408.1,276.8,368.4,201.5,368,200.8L368,200.8z"/>
	<path class="st72" d="M368.1,200.6l-7.8,14.5c13.5,21.8,31.9,42,37.4,67.9c-16.1,19.7-29.8,41.4-43.8,62.9l8.8,16.4
		c0.2-0.3,45.3-84.4,45.6-84.7C408.3,277.2,368.3,200.9,368.1,200.6L368.1,200.6z"/>
	<path class="st0" d="M408.6,277.5l-40.4-77.1l-7.5,14.1c13.8,22.2,31.7,42.3,37.3,68.5c-16.4,20-29.4,41.6-43.7,63.5l8.7,16.1
		L408.6,277.5L408.6,277.5z"/>
</g>
<line class="st6" x1="363" y1="362.5" x2="283.8" y2="510"/>
<g>
	<path class="st8" d="M187,277.5l39.7-21.1l-18.6-34.7c-11,19.8-28.8,38-26.1,59.2c3.6,20.7,16.9,39.7,31.1,57.1l19.4-36.2
		L187,277.5L187,277.5z"/>
	<path class="st9" d="M226.4,255.9L208,221.6c-10.9,19.5-28.9,38.5-26.3,59.4c3.5,20.3,17.2,40.3,31.3,57.5l19.2-36
		c-0.2-0.3-45.2-24.5-45.3-24.9C186.9,277.3,226.3,256.2,226.4,255.9L226.4,255.9z"/>
	<path class="st10" d="M226.1,255.4l-18.3-34c-10.7,19.2-29,39-26.5,59.6c3.5,20,17.6,40.9,31.4,57.8l19.1-35.7
		c-0.4-0.5-45-24.7-45.1-25.4C186.8,277,225.8,256,226.1,255.4L226.1,255.4z"/>
	<path class="st11" d="M225.8,254.9l-18.1-33.7c-10.5,18.9-29.2,39.5-26.7,59.7c3.4,19.7,18,41.5,31.6,58.1l19-35.4
		c-0.7-0.8-44.7-24.9-44.9-25.9C186.6,276.7,225.3,255.8,225.8,254.9L225.8,254.9z"/>
	<path class="st12" d="M225.6,254.3l-17.9-33.4c-10.4,18.6-29.3,40-26.8,59.9c3.4,19.4,18.3,42.1,31.7,58.4l18.8-35.1
		c-0.9-1.1-44.4-25.1-44.6-26.4C186.5,276.4,224.9,255.5,225.6,254.3L225.6,254.3z"/>
	<path class="st13" d="M225.3,253.8l-17.8-33.1c-10.2,18.3-29.5,40.5-27,60.1c3.3,19.1,18.7,42.6,31.9,58.7l18.7-34.8
		c-1.1-1.3-44.1-25.3-44.4-26.9C186.4,276.2,224.4,255.3,225.3,253.8L225.3,253.8z"/>
	<path class="st14" d="M225,253.3l-17.6-32.8c-10,18-29.6,41-27.2,60.3c3.3,18.8,19.1,43.2,32,59.1l18.5-34.6
		c-1.3-1.6-43.9-25.5-44.2-27.4C186.3,275.9,224,255.1,225,253.3L225,253.3z"/>
	<path class="st15" d="M224.7,252.7l-17.4-32.5c-9.8,17.7-29.8,41.5-27.4,60.5c3.2,18.4,19.5,43.8,32.2,59.4l18.4-34.3
		c-1.5-1.9-43.6-25.7-44-27.9C186.2,275.6,223.5,254.9,224.7,252.7L224.7,252.7z"/>
	<path class="st16" d="M224.4,252.2L207.2,220c-9.7,17.4-29.9,42-27.6,60.6c3.2,18.1,19.8,44.4,32.3,59.7l18.2-34
		c-1.8-2.1-43.3-25.9-43.8-28.4C186.1,275.3,223.1,254.6,224.4,252.2L224.4,252.2z"/>
	<path class="st17" d="M224.1,251.7L207,219.8c-9.5,17.1-30,42.5-27.8,60.8c3.1,17.8,20.2,45,32.5,60l18.1-33.7
		c-2-2.4-43-26-43.5-28.9C185.9,275.1,222.6,254.4,224.1,251.7L224.1,251.7z"/>
	<path class="st18" d="M223.8,251.1l-16.9-31.5c-9.3,16.8-30.2,43-27.9,61c3,17.5,20.6,45.6,32.6,60.4l17.9-33.5
		c-2.2-2.7-42.8-26.2-43.3-29.4C185.8,274.8,222.1,254.2,223.8,251.1L223.8,251.1z"/>
	<path class="st19" d="M223.6,250.6l-16.8-31.2c-9.2,16.5-30.3,43.5-28.1,61.2c3,17.2,20.9,46.2,32.8,60.7l17.8-33.2
		c-2.4-3-42.5-26.4-43.1-29.9C185.7,274.5,221.7,253.9,223.6,250.6L223.6,250.6z"/>
	<path class="st20" d="M223.3,250.1l-16.6-30.9c-9,16.2-30.5,44-28.3,61.3c2.9,16.8,21.3,46.8,32.9,61l17.6-32.9
		c-2.6-3.2-42.2-26.6-42.9-30.4C185.6,274.2,221.2,253.7,223.3,250.1L223.3,250.1z"/>
	<path class="st21" d="M223,249.5l-16.4-30.6c-8.8,15.9-30.6,44.5-28.5,61.5c2.9,16.5,21.7,47.4,33.1,61.3l17.5-32.6
		c-2.8-3.5-41.9-26.8-42.6-30.9C185.5,274,220.8,253.5,223,249.5L223,249.5z"/>
	<path class="st22" d="M222.7,249l-16.2-30.3c-8.7,15.6-30.7,45-28.7,61.7c2.8,16.2,22,48,33.2,61.6l17.3-32.3
		c-3.1-3.8-41.7-27-42.4-31.4C185.3,273.7,220.3,253.3,222.7,249L222.7,249z"/>
	<path class="st23" d="M222.4,248.5l-16.1-30c-8.5,15.3-30.9,45.5-28.8,61.9c2.8,15.9,22.4,48.6,33.4,62l17.2-32.1
		c-3.3-4-41.4-27.2-42.2-31.9C185.2,273.4,219.9,253,222.4,248.5L222.4,248.5z"/>
	<path class="st24" d="M222.1,247.9l-15.9-29.7c-8.3,15-31,46-29,62c2.7,15.6,22.8,49.2,33.5,62.3l17-31.8
		c-3.5-4.3-41.1-27.3-42-32.4C185.1,273.2,219.4,252.8,222.1,247.9z"/>
	<path class="st25" d="M221.8,247.4L206.1,218c-8.2,14.6-31.2,46.5-29.2,62.2c2.7,15.2,23.2,49.8,33.7,62.6l16.9-31.5
		c-3.7-4.6-40.8-27.5-41.8-32.9C185,272.9,219,252.6,221.8,247.4L221.8,247.4z"/>
	<path class="st26" d="M221.6,246.9l-15.6-29c-8,14.4-31.3,47-29.4,62.4c2.6,14.9,23.5,50.3,33.8,62.9l16.7-31.2
		c-4-4.8-40.5-27.7-41.5-33.4C184.9,272.6,218.5,252.3,221.6,246.9L221.6,246.9z"/>
	<path class="st27" d="M221.3,246.3l-15.4-28.7c-7.8,14-31.4,47.5-29.6,62.6c2.5,14.6,23.9,50.9,34,63.3l16.6-31
		c-4.2-5.1-40.3-27.9-41.3-33.9C184.8,272.3,218.1,252.1,221.3,246.3L221.3,246.3z"/>
	<path class="st28" d="M221,245.8l-15.2-28.4c-7.6,13.7-31.6,48-29.8,62.8c2.5,14.3,24.3,51.5,34.1,63.6l16.4-30.7
		c-4.4-5.4-40-28.1-41.1-34.4C184.6,272.1,217.6,251.9,221,245.8L221,245.8z"/>
	<path class="st29" d="M220.7,245.3l-15.1-28.1c-7.5,13.4-31.7,48.5-29.9,62.9c2.4,14,24.6,52.1,34.3,63.9l16.3-30.4
		c-4.6-5.6-39.7-28.3-40.9-35C184.5,271.8,217.1,251.7,220.7,245.3L220.7,245.3z"/>
	<path class="st30" d="M220.4,244.7l-14.9-27.8c-7.3,13.1-31.9,49-30.1,63.1c2.4,13.7,25,52.7,34.4,64.2l16.1-30.1
		c-4.8-5.9-39.4-28.5-40.7-35.5C184.4,271.5,216.7,251.4,220.4,244.7L220.4,244.7z"/>
	<path class="st31" d="M220.1,244.2l-14.7-27.5c-7.1,12.8-32,49.5-30.3,63.3c2.3,13.4,25.4,53.3,34.6,64.6l16-29.8
		c-5-6.2-39.2-28.6-40.4-36C184.3,271.2,216.2,251.2,220.1,244.2L220.1,244.2z"/>
	<path class="st32" d="M219.8,243.7l-14.6-27.2c-7,12.5-32.2,50-30.5,63.5c2.3,13,25.7,53.9,34.7,64.9l15.8-29.6
		c-5.3-6.4-38.9-28.8-40.2-36.5C184.2,271,215.8,251,219.8,243.7L219.8,243.7z"/>
	<path class="st33" d="M219.6,243.1l-14.4-26.8c-6.8,12.2-32.3,50.5-30.7,63.6c2.2,12.7,26.1,54.5,34.9,65.2l15.7-29.3
		c-5.5-6.7-38.6-29-40-37C184.1,270.7,215.3,250.8,219.6,243.1z"/>
	<path class="st34" d="M219.3,242.6L205,216.1c-6.6,11.9-32.4,51.1-30.8,63.8c2.2,12.4,26.5,55.1,35,65.5l15.5-29
		c-5.7-7-38.3-29.2-39.8-37.5C183.9,270.4,214.8,250.5,219.3,242.6L219.3,242.6z"/>
	<path class="st35" d="M219,242.1l-14.1-26.2c-6.5,11.6-32.6,51.6-31,64c2.1,12.1,26.8,55.7,35.2,65.9l15.4-28.7
		c-5.9-7.2-38-29.4-39.5-38C183.8,270.2,214.4,250.3,219,242.1L219,242.1z"/>
	<path class="st36" d="M218.7,241.5l-13.9-25.9c-6.3,11.3-32.7,52.1-31.2,64.2c2,11.8,27.2,56.2,35.3,66.2l15.2-28.5
		c-6.1-7.5-37.8-29.6-39.3-38.5C183.7,269.9,213.9,250.1,218.7,241.5L218.7,241.5z"/>
	<path class="st37" d="M218.4,241l-13.7-25.6c-6.1,11-32.8,52.6-31.4,64.3c2,11.4,27.6,56.8,35.5,66.5l15.1-28.2
		c-6.4-7.8-37.5-29.8-39.1-39C183.6,269.6,213.5,249.8,218.4,241L218.4,241z"/>
	<path class="st38" d="M218.1,240.5l-13.6-25.3c-5.9,10.7-33,53.1-31.6,64.5c1.9,11.1,28,57.4,35.6,66.8l14.9-27.9
		c-6.6-8-37.2-30-38.9-39.5C183.5,269.3,213,249.6,218.1,240.5L218.1,240.5z"/>
	<path class="st39" d="M217.8,239.9l-13.4-25c-5.8,10.4-33.1,53.6-31.8,64.7c1.9,10.8,28.3,58,35.8,67.1l14.8-27.6
		c-6.8-8.3-36.9-30.1-38.7-40C183.3,269.1,212.6,249.4,217.8,239.9L217.8,239.9z"/>
	<path class="st40" d="M217.5,239.4l-13.2-24.6c-5.6,10.1-33.3,54.1-31.9,64.9c1.8,10.5,28.7,58.6,35.9,67.5l14.6-27.3
		c-7-8.6-36.7-30.3-38.4-40.5C183.2,268.8,212.1,249.2,217.5,239.4L217.5,239.4z"/>
	<path class="st41" d="M217.3,238.9l-13.1-24.3c-5.4,9.8-33.4,54.6-32.1,65.1c1.8,10.2,29.1,59.2,36.1,67.8l14.5-27.1
		c-7.2-8.9-36.4-30.5-38.2-41C183.1,268.5,211.7,248.9,217.3,238.9L217.3,238.9z"/>
	<path class="st42" d="M217,238.3l-12.9-24c-5.3,9.5-33.6,55.1-32.3,65.2c1.7,9.9,29.4,59.8,36.2,68.1l14.3-26.8
		c-7.5-9.1-36.1-30.7-38-41.5C183,268.2,211.2,248.7,217,238.3L217,238.3z"/>
	<path class="st43" d="M216.7,237.8L204,214.1c-5.1,9.2-33.7,55.6-32.5,65.4c1.7,9.5,29.8,60.4,36.4,68.4l14.2-26.5
		c-7.7-9.4-35.8-30.9-37.8-42C182.9,268,210.8,248.5,216.7,237.8L216.7,237.8z"/>
	<path class="st44" d="M216.4,237.3l-12.5-23.4c-4.9,8.9-33.8,56.1-32.7,65.6c1.6,9.2,30.2,61,36.5,68.8l14-26.2
		c-7.9-9.6-35.6-31.1-37.5-42.5C182.8,267.7,210.3,248.2,216.4,237.3L216.4,237.3z"/>
	<path class="st45" d="M216.1,236.7l-12.4-23.1c-4.8,8.5-34,56.6-32.8,65.8c1.5,8.9,30.5,61.6,36.7,69.1l13.9-25.9
		c-8.1-9.9-35.3-31.2-37.3-43C182.6,267.4,209.8,248,216.1,236.7L216.1,236.7z"/>
	<path class="st46" d="M215.8,236.2l-12.2-22.8c-4.6,8.2-34.1,57.1-33,65.9c1.5,8.6,30.9,62.2,36.8,69.4l13.7-25.7
		c-8.3-10.2-35-31.4-37.1-43.5C182.5,267.1,209.4,247.8,215.8,236.2L215.8,236.2z"/>
	<path class="st47" d="M215.5,235.7l-12-22.5c-4.4,7.9-34.3,57.6-33.2,66.1c1.4,8.3,31.3,62.8,37,69.7l13.6-25.4
		c-8.5-10.5-34.7-31.6-36.9-44C182.4,266.9,208.9,247.6,215.5,235.7L215.5,235.7z"/>
	<path class="st48" d="M215.3,235.1L203.4,213c-4.2,7.6-34.4,58.1-33.4,66.3c1.4,7.9,31.7,63.3,37.1,70l13.4-25.1
		c-8.8-10.7-34.5-31.8-36.7-44.5C182.3,266.6,208.5,247.3,215.3,235.1L215.3,235.1z"/>
	<path class="st49" d="M215,234.6l-11.7-21.8c-4.1,7.3-34.5,58.6-33.6,66.5c1.3,7.6,32,63.9,37.3,70.4l13.3-24.8
		c-9-11-34.2-32-36.4-45C182.2,266.3,208,247.1,215,234.6L215,234.6z"/>
	<path class="st50" d="M214.7,234.1l-11.5-21.5c-3.9,7-34.7,59.1-33.8,66.6c1.3,7.3,32.4,64.5,37.4,70.7l13.2-24.5
		c-9.2-11.3-33.9-32.2-36.2-45.5C182.1,266.1,207.6,246.9,214.7,234.1L214.7,234.1z"/>
	<path class="st51" d="M214.4,233.5L203,212.3c-3.7,6.7-34.8,59.6-33.9,66.8c1.2,7,32.8,65.1,37.6,71l13-24.3
		c-9.4-11.5-33.6-32.4-36-46C181.9,265.8,207.1,246.6,214.4,233.5L214.4,233.5z"/>
	<path class="st52" d="M214.1,233l-11.2-20.9c-3.6,6.4-35,60.1-34.1,67c1.2,6.7,33.1,65.7,37.7,71.3l12.8-24
		c-9.7-11.8-33.3-32.6-35.8-46.5C181.8,265.5,206.6,246.4,214.1,233L214.1,233z"/>
	<path class="st53" d="M213.8,232.5l-11-20.6c-3.4,6.1-35.1,60.6-34.3,67.2c1.1,6.4,33.5,66.3,37.9,71.7l12.7-23.7
		c-9.9-12.1-33.1-32.8-35.5-47C181.7,265.2,206.2,246.2,213.8,232.5L213.8,232.5z"/>
	<path class="st54" d="M213.5,231.9l-10.9-20.3c-3.2,5.8-35.2,61.1-34.5,67.3c1,6,33.9,66.9,38,72l12.5-23.4
		c-10.1-12.3-32.8-32.9-35.3-47.5C181.6,264.9,205.7,246,213.5,231.9L213.5,231.9z"/>
	<path class="st55" d="M213.3,231.4l-10.7-20c-3.1,5.5-35.4,61.6-34.7,67.5c1,5.7,34.2,67.5,38.2,72.3l12.4-23.2
		c-10.3-12.6-32.5-33.1-35.1-48C181.5,264.7,205.3,245.8,213.3,231.4L213.3,231.4z"/>
	<path class="st56" d="M213,230.9l-10.5-19.6c-2.9,5.2-35.5,62.1-34.8,67.7c0.9,5.4,34.6,68.1,38.3,72.6l12.2-22.9
		c-10.5-12.9-32.2-33.3-34.9-48.6C181.3,264.4,204.8,245.5,213,230.9L213,230.9z"/>
	<path class="st57" d="M212.7,230.3L202.3,211c-2.7,4.9-35.7,62.6-35,67.9c0.9,5.1,35,68.7,38.5,72.9l12.1-22.6
		c-10.8-13.1-32-33.5-34.7-49.1C181.2,264.1,204.4,245.3,212.7,230.3L212.7,230.3z"/>
	<path class="st58" d="M212.4,229.8l-10.2-19c-2.5,4.6-35.8,63.1-35.2,68.1c0.8,4.8,35.3,69.2,38.6,73.3l12-22.3
		c-11-13.4-31.7-33.7-34.5-49.6C181.1,263.9,203.9,245.1,212.4,229.8L212.4,229.8z"/>
	<path class="st59" d="M212.1,229.2l-10-18.7c-2.4,4.3-36,63.6-35.4,68.2c0.8,4.5,35.7,69.8,38.8,73.6l11.8-22
		c-11.2-13.7-31.4-33.9-34.2-50.1C181,263.6,203.5,244.8,212.1,229.2L212.1,229.2z"/>
	<path class="st60" d="M211.8,228.7l-9.9-18.4c-2.2,4-36.1,64.1-35.6,68.4c0.7,4.1,36.1,70.4,38.9,73.9l11.7-21.8
		c-11.4-13.9-31.1-34-34-50.6C180.9,263.3,203,244.6,211.8,228.7L211.8,228.7z"/>
	<path class="st61" d="M211.5,228.2l-9.7-18.1c-2,3.7-36.2,64.7-35.8,68.6c0.7,3.8,36.5,71,39.1,74.2l11.5-21.5
		c-11.6-14.2-30.8-34.2-33.8-51.1C180.7,263,202.5,244.4,211.5,228.2L211.5,228.2z"/>
	<path class="st62" d="M211.3,227.6l-9.5-17.8c-1.9,3.4-36.4,65.2-35.9,68.8c0.6,3.5,36.8,71.6,39.2,74.6l11.4-21.2
		c-11.8-14.5-30.6-34.4-33.6-51.6C180.6,262.8,202.1,244.1,211.3,227.6L211.3,227.6z"/>
	<path class="st63" d="M211,227.1l-9.4-17.5c-1.7,3-36.5,65.7-36.1,68.9c0.5,3.2,37.2,72.2,39.4,74.9l11.2-20.9
		c-12.1-14.8-30.3-34.6-33.3-52.1C180.5,262.5,201.6,243.9,211,227.1L211,227.1z"/>
	<path class="st64" d="M210.7,226.6l-9.2-17.1c-1.5,2.8-36.7,66.2-36.3,69.1c0.5,2.9,37.6,72.8,39.5,75.2l11.1-20.7
		c-12.3-15-30-34.8-33.1-52.6C180.4,262.2,201.2,243.7,210.7,226.6L210.7,226.6z"/>
	<path class="st65" d="M210.4,226l-9-16.8c-1.4,2.4-36.8,66.7-36.5,69.3c0.4,2.5,37.9,73.4,39.7,75.5l10.9-20.4
		c-12.5-15.3-29.7-35-32.9-53.1C180.3,261.9,200.7,243.5,210.4,226L210.4,226z"/>
	<path class="st66" d="M210.1,225.5l-8.9-16.5c-1.2,2.1-36.9,67.2-36.7,69.5c0.4,2.2,38.3,74,39.8,75.9l10.8-20.1
		c-12.7-15.5-29.5-35.2-32.7-53.6C180.2,261.6,200.2,243.2,210.1,225.5L210.1,225.5z"/>
	<path class="st67" d="M209.8,225l-8.7-16.2c-1,1.8-37.1,67.7-36.8,69.6c0.3,1.9,38.7,74.6,40,76.2l10.6-19.8
		c-12.9-15.8-29.2-35.4-32.5-54.1C180.1,261.4,199.8,243,209.8,225L209.8,225z"/>
	<path class="st68" d="M209.5,224.5l-8.5-15.9c-0.8,1.5-37.2,68.2-37,69.8c0.3,1.6,39,75.2,40.2,76.5l10.5-19.5
		c-13.2-16.1-28.9-35.5-32.2-54.6C179.9,261.1,199.4,242.8,209.5,224.5L209.5,224.5z"/>
	<path class="st69" d="M209.2,223.9l-8.3-15.6c-0.7,1.2-37.4,68.7-37.2,70c0.2,1.3,39.4,75.8,40.3,76.8l10.3-19.3
		c-13.4-16.4-28.6-35.7-32-55.1C179.8,260.8,198.9,242.5,209.2,223.9L209.2,223.9z"/>
	<path class="st70" d="M209,223.4l-8.2-15.3c-0.5,0.9-37.5,69.2-37.4,70.2c0.2,1,39.8,76.4,40.5,77.1l10.2-19
		c-13.6-16.6-28.4-35.9-31.8-55.6C179.7,260.6,198.5,242.3,209,223.4L209,223.4z"/>
	<path class="st71" d="M208.7,222.9l-8-14.9c-0.3,0.6-37.7,69.7-37.6,70.4c0.1,0.6,40.2,76.9,40.6,77.5l10-18.7
		c-13.8-16.9-28.1-36.1-31.6-56.1C179.6,260.3,198,242.1,208.7,222.9L208.7,222.9z"/>
	<path class="st72" d="M208.4,222.3l-7.8-14.6c-0.2,0.3-37.8,70.2-37.8,70.5c0.1,0.3,40.5,77.5,40.8,77.8l9.9-18.4
		c-14-17.2-27.8-36.3-31.3-56.6C179.5,260,197.5,241.9,208.4,222.3L208.4,222.3z"/>
	<path class="st0" d="M208.1,221.8l-7.7-14.3l-37.9,70.7l40.9,78.1l9.7-18.2c-14.3-17.4-27.5-36.5-31.1-57.1
		C179.3,259.7,197.1,241.6,208.1,221.8L208.1,221.8z"/>
</g>
<polygon class="st7" points="309,558 258,558 283.8,510 "/>
<line class="st6" x1="283.8" y1="510" x2="203.4" y2="356.3"/>
<line class="st73" x1="286" y1="331" x2="286" y2="414"/>
<line class="st73" x1="286" y1="142" x2="286" y2="225"/>
<line class="st73" x1="252" y1="365" x2="322" y2="365"/>
<line class="st73" x1="252" y1="191" x2="322" y2="191"/>
<path class="st73" d="M322,207v-99c-0.8-19.4,7.6-28.4,25-27"/>
<path class="st73" d="M252,207v-99c0.8-19.4-7.6-28.4-25-27"/>
<path class="st73" d="M252,349v99c0.8,19.4-7.6,28.4-25,27"/>
<path class="st73" d="M322,349v99c-0.8,19.4,7.6,28.4,25,27"/>
<line class="st73" x1="492" y1="228" x2="492" y2="329"/>
<line class="st73" x1="80" y1="228" x2="80" y2="329"/>
<line class="st73" x1="479" y1="228" x2="525" y2="228"/>
<line class="st73" x1="479" y1="328" x2="525" y2="328"/>
<line class="st73" x1="47" y1="228" x2="93" y2="228"/>
<line class="st73" x1="47" y1="328" x2="93" y2="328"/>
<line class="st73" x1="459.7" y1="29.4" x2="368.2" y2="200.4"/>
<line class="st73" x1="203.4" y1="356.3" x2="112" y2="527"/>
<line class="st73" x1="200.4" y1="207.5" x2="106" y2="31.4"/>
<line class="st73" x1="453.7" y1="531" x2="363" y2="362.5"/>
<g>
	<line class="st73" x1="439" y1="155" x2="366" y2="116"/>
	<line class="st73" x1="434.1" y1="163.3" x2="455.9" y2="122.7"/>
	<line class="st73" x1="362.1" y1="124.3" x2="383.9" y2="83.7"/>
</g>
<g>
	<line class="st73" x1="360.2" y1="444" x2="433.1" y2="404.9"/>
	<line class="st73" x1="356" y1="435.3" x2="377.6" y2="475.9"/>
	<line class="st73" x1="428.4" y1="397.1" x2="450" y2="437.7"/>
</g>
<g>
	<line class="st73" x1="133.5" y1="400.5" x2="205.9" y2="440.7"/>
	<line class="st73" x1="138.6" y1="392.3" x2="116.1" y2="432.5"/>
	<line class="st73" x1="209.9" y1="432.5" x2="187.4" y2="472.7"/>
</g>
<g>
	<line class="st73" x1="198" y1="114.6" x2="124.5" y2="152.7"/>
	<line class="st73" x1="202" y1="123.3" x2="180.9" y2="82.4"/>
	<line class="st73" x1="129.1" y1="160.6" x2="108" y2="119.7"/>
</g>
<line class="st73" x1="7" y1="278" x2="558" y2="278"/>
<polygon class="st74" points="384,278.5 285,278 285,225.5 285,225.5 339.3,254.5 "/>
<polygon class="st7" points="285,225.5 285,278 187,277.5 226.7,256.5 "/>
<polygon class="st75" points="285,278 285,330 232.5,301.9 187,277.5 "/>
<polygon class="st7" points="384,278.5 332.4,305.8 286,330.5 285,330 285,278 "/>
<path class="st76" d="M258.1,557H62.8c-15.7,0-29.8-6.6-39.8-17.1"/>
<path class="st76" d="M543.9,537.8c-10,11.8-25,19.2-41.7,19.2H308.9"/>
<path class="st76" d="M307.9,8h194.3c16.2,0,30.7,7,40.7,18.1"/>
<path class="st76" d="M28.1,20.4C37.6,12.6,49.7,8,62.8,8h204.3"/>
</svg>
